solid OpenSCAD_Model
  facet normal 0 0 -1
    outer loop
      vertex -20 0 0
      vertex -19.8423 2.50666 0
      vertex -19.8423 -2.50666 0
    endloop
  endfacet
  facet normal 0 0 -1
    outer loop
      vertex -19.8423 -2.50666 0
      vertex -19.8423 2.50666 0
      vertex -19.3717 4.9738 0
    endloop
  endfacet
  facet normal 0 0 -1
    outer loop
      vertex -19.8423 -2.50666 0
      vertex -19.3717 4.9738 0
      vertex -18.5955 7.36249 0
    endloop
  endfacet
  facet normal 0 0 -1
    outer loop
      vertex -19.8423 -2.50666 0
      vertex -18.5955 7.36249 0
      vertex -17.5261 9.63507 0
    endloop
  endfacet
  facet normal 0 0 -1
    outer loop
      vertex -19.8423 -2.50666 0
      vertex -17.5261 9.63507 0
      vertex -16.1803 11.7557 0
    endloop
  endfacet
  facet normal 0 0 -1
    outer loop
      vertex -19.8423 -2.50666 0
      vertex -16.1803 11.7557 0
      vertex -14.5794 13.6909 0
    endloop
  endfacet
  facet normal 0 0 -1
    outer loop
      vertex -19.8423 -2.50666 0
      vertex -14.5794 13.6909 0
      vertex -12.7485 15.4103 0
    endloop
  endfacet
  facet normal 0 0 -1
    outer loop
      vertex -19.8423 -2.50666 0
      vertex -12.7485 15.4103 0
      vertex -10.7165 16.8866 0
    endloop
  endfacet
  facet normal 0 0 -1
    outer loop
      vertex -19.8423 -2.50666 0
      vertex -10.7165 16.8866 0
      vertex -8.51559 18.0965 0
    endloop
  endfacet
  facet normal 0 0 -1
    outer loop
      vertex -19.8423 -2.50666 0
      vertex -8.51559 18.0965 0
      vertex -6.18034 19.0211 0
    endloop
  endfacet
  facet normal 0 0 -1
    outer loop
      vertex -19.8423 -2.50666 0
      vertex -6.18034 19.0211 0
      vertex -3.74763 19.6457 0
    endloop
  endfacet
  facet normal 0 0 -1
    outer loop
      vertex -19.8423 -2.50666 0
      vertex -3.74763 19.6457 0
      vertex -1.25581 19.9605 0
    endloop
  endfacet
  facet normal 0 0 -1
    outer loop
      vertex -19.8423 -2.50666 0
      vertex -1.25581 19.9605 0
      vertex 1.25581 19.9605 0
    endloop
  endfacet
  facet normal 0 0 -1
    outer loop
      vertex -19.8423 -2.50666 0
      vertex 1.25581 19.9605 0
      vertex 3.74763 19.6457 0
    endloop
  endfacet
  facet normal 0 0 -1
    outer loop
      vertex -19.8423 -2.50666 0
      vertex 3.74763 19.6457 0
      vertex 6.18034 19.0211 0
    endloop
  endfacet
  facet normal 0 0 -1
    outer loop
      vertex -19.8423 -2.50666 0
      vertex 6.18034 19.0211 0
      vertex 8.51559 18.0965 0
    endloop
  endfacet
  facet normal 0 0 -1
    outer loop
      vertex -19.8423 -2.50666 0
      vertex 8.51559 18.0965 0
      vertex 10.7165 16.8866 0
    endloop
  endfacet
  facet normal 0 0 -1
    outer loop
      vertex -19.8423 -2.50666 0
      vertex 10.7165 16.8866 0
      vertex 12.7485 15.4103 0
    endloop
  endfacet
  facet normal 0 0 -1
    outer loop
      vertex -19.8423 -2.50666 0
      vertex 12.7485 15.4103 0
      vertex 14.5794 13.6909 0
    endloop
  endfacet
  facet normal 0 0 -1
    outer loop
      vertex -19.8423 -2.50666 0
      vertex 14.5794 13.6909 0
      vertex 16.1803 11.7557 0
    endloop
  endfacet
  facet normal 0 0 -1
    outer loop
      vertex -19.8423 -2.50666 0
      vertex 16.1803 11.7557 0
      vertex 17.5261 9.63507 0
    endloop
  endfacet
  facet normal 0 0 -1
    outer loop
      vertex -19.8423 -2.50666 0
      vertex 17.5261 9.63507 0
      vertex 18.5955 7.36249 0
    endloop
  endfacet
  facet normal 0 0 -1
    outer loop
      vertex -19.8423 -2.50666 0
      vertex 18.5955 7.36249 0
      vertex 19.3717 4.9738 0
    endloop
  endfacet
  facet normal 0 0 -1
    outer loop
      vertex -19.8423 -2.50666 0
      vertex 19.3717 4.9738 0
      vertex 19.8423 2.50666 0
    endloop
  endfacet
  facet normal 0 0 -1
    outer loop
      vertex -19.8423 -2.50666 0
      vertex 19.8423 2.50666 0
      vertex 20 0 0
    endloop
  endfacet
  facet normal 0 0 -1
    outer loop
      vertex -19.8423 -2.50666 0
      vertex 20 0 0
      vertex 19.8423 -2.50666 0
    endloop
  endfacet
  facet normal 0 0 -1
    outer loop
      vertex -19.8423 -2.50666 0
      vertex 19.8423 -2.50666 0
      vertex 19.3717 -4.9738 0
    endloop
  endfacet
  facet normal 0 0 -1
    outer loop
      vertex -19.8423 -2.50666 0
      vertex 19.3717 -4.9738 0
      vertex 18.5955 -7.36249 0
    endloop
  endfacet
  facet normal 0 0 -1
    outer loop
      vertex -19.8423 -2.50666 0
      vertex 18.5955 -7.36249 0
      vertex 17.5261 -9.63507 0
    endloop
  endfacet
  facet normal 0 0 -1
    outer loop
      vertex -19.8423 -2.50666 0
      vertex 17.5261 -9.63507 0
      vertex 16.1803 -11.7557 0
    endloop
  endfacet
  facet normal 0 0 -1
    outer loop
      vertex -19.8423 -2.50666 0
      vertex 16.1803 -11.7557 0
      vertex 14.5794 -13.6909 0
    endloop
  endfacet
  facet normal 0 0 -1
    outer loop
      vertex -19.8423 -2.50666 0
      vertex 14.5794 -13.6909 0
      vertex 12.7485 -15.4103 0
    endloop
  endfacet
  facet normal 0 0 -1
    outer loop
      vertex -19.8423 -2.50666 0
      vertex 12.7485 -15.4103 0
      vertex 10.7165 -16.8866 0
    endloop
  endfacet
  facet normal 0 0 -1
    outer loop
      vertex -19.8423 -2.50666 0
      vertex 10.7165 -16.8866 0
      vertex 8.51559 -18.0965 0
    endloop
  endfacet
  facet normal 0 0 -1
    outer loop
      vertex -19.8423 -2.50666 0
      vertex 8.51559 -18.0965 0
      vertex 6.18034 -19.0211 0
    endloop
  endfacet
  facet normal 0 0 -1
    outer loop
      vertex -19.8423 -2.50666 0
      vertex 6.18034 -19.0211 0
      vertex 3.74763 -19.6457 0
    endloop
  endfacet
  facet normal 0 0 -1
    outer loop
      vertex -19.8423 -2.50666 0
      vertex 3.74763 -19.6457 0
      vertex 1.25581 -19.9605 0
    endloop
  endfacet
  facet normal 0 0 -1
    outer loop
      vertex -19.8423 -2.50666 0
      vertex 1.25581 -19.9605 0
      vertex -1.25581 -19.9605 0
    endloop
  endfacet
  facet normal 0 0 -1
    outer loop
      vertex -19.8423 -2.50666 0
      vertex -1.25581 -19.9605 0
      vertex -3.74763 -19.6457 0
    endloop
  endfacet
  facet normal 0 0 -1
    outer loop
      vertex -19.8423 -2.50666 0
      vertex -3.74763 -19.6457 0
      vertex -6.18034 -19.0211 0
    endloop
  endfacet
  facet normal 0 0 -1
    outer loop
      vertex -19.8423 -2.50666 0
      vertex -6.18034 -19.0211 0
      vertex -8.51559 -18.0965 0
    endloop
  endfacet
  facet normal 0 0 -1
    outer loop
      vertex -19.8423 -2.50666 0
      vertex -8.51559 -18.0965 0
      vertex -10.7165 -16.8866 0
    endloop
  endfacet
  facet normal 0 0 -1
    outer loop
      vertex -19.8423 -2.50666 0
      vertex -10.7165 -16.8866 0
      vertex -12.7485 -15.4103 0
    endloop
  endfacet
  facet normal 0 0 -1
    outer loop
      vertex -19.8423 -2.50666 0
      vertex -12.7485 -15.4103 0
      vertex -14.5794 -13.6909 0
    endloop
  endfacet
  facet normal 0 0 -1
    outer loop
      vertex -19.8423 -2.50666 0
      vertex -14.5794 -13.6909 0
      vertex -16.1803 -11.7557 0
    endloop
  endfacet
  facet normal 0 0 -1
    outer loop
      vertex -19.8423 -2.50666 0
      vertex -16.1803 -11.7557 0
      vertex -17.5261 -9.63507 0
    endloop
  endfacet
  facet normal 0 0 -1
    outer loop
      vertex -19.8423 -2.50666 0
      vertex -17.5261 -9.63507 0
      vertex -18.5955 -7.36249 0
    endloop
  endfacet
  facet normal 0 0 -1
    outer loop
      vertex -19.8423 -2.50666 0
      vertex -18.5955 -7.36249 0
      vertex -19.3717 -4.9738 0
    endloop
  endfacet
  facet normal -0.998027 0.0627905 0
    outer loop
      vertex -20 0 0
      vertex -20 0 2.5
      vertex -19.8423 2.50666 0
    endloop
  endfacet
  facet normal -0.998027 0.0627905 0
    outer loop
      vertex -19.8423 2.50666 0
      vertex -20 0 2.5
      vertex -19.8423 2.50666 2.5
    endloop
  endfacet
  facet normal -0.998027 -0.0627905 0
    outer loop
      vertex -20 0 0
      vertex -19.8423 -2.50666 0
      vertex -20 0 2.5
    endloop
  endfacet
  facet normal -0.998027 -0.0627905 0
    outer loop
      vertex -20 0 2.5
      vertex -19.8423 -2.50666 0
      vertex -19.8423 -2.50666 2.5
    endloop
  endfacet
  facet normal -0.982287 -0.187381 0
    outer loop
      vertex -19.8423 -2.50666 0
      vertex -19.3717 -4.9738 0
      vertex -19.8423 -2.50666 2.5
    endloop
  endfacet
  facet normal -0.982287 -0.187381 0
    outer loop
      vertex -19.8423 -2.50666 2.5
      vertex -19.3717 -4.9738 0
      vertex -19.3717 -4.9738 2.5
    endloop
  endfacet
  facet normal -0.951057 -0.309017 0
    outer loop
      vertex -19.3717 -4.9738 0
      vertex -18.5955 -7.36249 0
      vertex -19.3717 -4.9738 2.5
    endloop
  endfacet
  facet normal -0.951057 -0.309017 0
    outer loop
      vertex -19.3717 -4.9738 2.5
      vertex -18.5955 -7.36249 0
      vertex -18.5955 -7.36249 2.5
    endloop
  endfacet
  facet normal -0.904827 -0.425779 0
    outer loop
      vertex -18.5955 -7.36249 0
      vertex -17.5261 -9.63507 0
      vertex -18.5955 -7.36249 2.5
    endloop
  endfacet
  facet normal -0.904827 -0.425779 0
    outer loop
      vertex -18.5955 -7.36249 2.5
      vertex -17.5261 -9.63507 0
      vertex -17.5261 -9.63507 2.5
    endloop
  endfacet
  facet normal -0.844328 -0.535827 0
    outer loop
      vertex -17.5261 -9.63507 0
      vertex -16.1803 -11.7557 0
      vertex -17.5261 -9.63507 2.5
    endloop
  endfacet
  facet normal -0.844328 -0.535827 0
    outer loop
      vertex -17.5261 -9.63507 2.5
      vertex -16.1803 -11.7557 0
      vertex -16.1803 -11.7557 2.5
    endloop
  endfacet
  facet normal -0.770513 -0.637424 0
    outer loop
      vertex -16.1803 -11.7557 0
      vertex -14.5794 -13.6909 0
      vertex -16.1803 -11.7557 2.5
    endloop
  endfacet
  facet normal -0.770513 -0.637424 0
    outer loop
      vertex -16.1803 -11.7557 2.5
      vertex -14.5794 -13.6909 0
      vertex -14.5794 -13.6909 2.5
    endloop
  endfacet
  facet normal -0.684547 -0.728969 0
    outer loop
      vertex -14.5794 -13.6909 2.5
      vertex -14.5794 -13.6909 0
      vertex -12.7485 -15.4103 0
    endloop
  endfacet
  facet normal -0.684547 -0.728969 0
    outer loop
      vertex -12.7485 -15.4103 2.5
      vertex -14.5794 -13.6909 2.5
      vertex -12.7485 -15.4103 0
    endloop
  endfacet
  facet normal -0.587785 -0.809017 0
    outer loop
      vertex -12.7485 -15.4103 2.5
      vertex -12.7485 -15.4103 0
      vertex -10.7165 -16.8866 0
    endloop
  endfacet
  facet normal -0.587785 -0.809017 0
    outer loop
      vertex -10.7165 -16.8866 2.5
      vertex -12.7485 -15.4103 2.5
      vertex -10.7165 -16.8866 0
    endloop
  endfacet
  facet normal -0.481754 -0.876307 0
    outer loop
      vertex -10.7165 -16.8866 2.5
      vertex -10.7165 -16.8866 0
      vertex -8.51559 -18.0965 0
    endloop
  endfacet
  facet normal -0.481754 -0.876307 0
    outer loop
      vertex -8.51559 -18.0965 2.5
      vertex -10.7165 -16.8866 2.5
      vertex -8.51559 -18.0965 0
    endloop
  endfacet
  facet normal -0.368124 -0.929777 0
    outer loop
      vertex -8.51559 -18.0965 2.5
      vertex -8.51559 -18.0965 0
      vertex -6.18034 -19.0211 0
    endloop
  endfacet
  facet normal -0.368124 -0.929777 0
    outer loop
      vertex -6.18034 -19.0211 2.5
      vertex -8.51559 -18.0965 2.5
      vertex -6.18034 -19.0211 0
    endloop
  endfacet
  facet normal -0.24869 -0.968583 0
    outer loop
      vertex -6.18034 -19.0211 2.5
      vertex -6.18034 -19.0211 0
      vertex -3.74763 -19.6457 0
    endloop
  endfacet
  facet normal -0.24869 -0.968583 0
    outer loop
      vertex -3.74763 -19.6457 2.5
      vertex -6.18034 -19.0211 2.5
      vertex -3.74763 -19.6457 0
    endloop
  endfacet
  facet normal -0.125333 -0.992115 0
    outer loop
      vertex -3.74763 -19.6457 2.5
      vertex -3.74763 -19.6457 0
      vertex -1.25581 -19.9605 0
    endloop
  endfacet
  facet normal -0.125333 -0.992115 0
    outer loop
      vertex -1.25581 -19.9605 2.5
      vertex -3.74763 -19.6457 2.5
      vertex -1.25581 -19.9605 0
    endloop
  endfacet
  facet normal 0 -1 0
    outer loop
      vertex -1.25581 -19.9605 2.5
      vertex -1.25581 -19.9605 0
      vertex 1.25581 -19.9605 0
    endloop
  endfacet
  facet normal 0 -1 0
    outer loop
      vertex 1.25581 -19.9605 2.5
      vertex -1.25581 -19.9605 2.5
      vertex 1.25581 -19.9605 0
    endloop
  endfacet
  facet normal 0.125333 -0.992115 0
    outer loop
      vertex 1.25581 -19.9605 2.5
      vertex 1.25581 -19.9605 0
      vertex 3.74763 -19.6457 0
    endloop
  endfacet
  facet normal 0.125333 -0.992115 0
    outer loop
      vertex 3.74763 -19.6457 2.5
      vertex 1.25581 -19.9605 2.5
      vertex 3.74763 -19.6457 0
    endloop
  endfacet
  facet normal 0.24869 -0.968583 0
    outer loop
      vertex 3.74763 -19.6457 2.5
      vertex 3.74763 -19.6457 0
      vertex 6.18034 -19.0211 0
    endloop
  endfacet
  facet normal 0.24869 -0.968583 0
    outer loop
      vertex 6.18034 -19.0211 2.5
      vertex 3.74763 -19.6457 2.5
      vertex 6.18034 -19.0211 0
    endloop
  endfacet
  facet normal 0.368124 -0.929777 0
    outer loop
      vertex 6.18034 -19.0211 2.5
      vertex 6.18034 -19.0211 0
      vertex 8.51559 -18.0965 0
    endloop
  endfacet
  facet normal 0.368124 -0.929777 0
    outer loop
      vertex 8.51559 -18.0965 2.5
      vertex 6.18034 -19.0211 2.5
      vertex 8.51559 -18.0965 0
    endloop
  endfacet
  facet normal 0.481754 -0.876307 0
    outer loop
      vertex 8.51559 -18.0965 2.5
      vertex 8.51559 -18.0965 0
      vertex 10.7165 -16.8866 0
    endloop
  endfacet
  facet normal 0.481754 -0.876307 0
    outer loop
      vertex 10.7165 -16.8866 2.5
      vertex 8.51559 -18.0965 2.5
      vertex 10.7165 -16.8866 0
    endloop
  endfacet
  facet normal 0.587785 -0.809017 0
    outer loop
      vertex 10.7165 -16.8866 2.5
      vertex 10.7165 -16.8866 0
      vertex 12.7485 -15.4103 0
    endloop
  endfacet
  facet normal 0.587785 -0.809017 0
    outer loop
      vertex 12.7485 -15.4103 2.5
      vertex 10.7165 -16.8866 2.5
      vertex 12.7485 -15.4103 0
    endloop
  endfacet
  facet normal 0.684547 -0.728969 0
    outer loop
      vertex 12.7485 -15.4103 2.5
      vertex 12.7485 -15.4103 0
      vertex 14.5794 -13.6909 0
    endloop
  endfacet
  facet normal 0.684547 -0.728969 0
    outer loop
      vertex 14.5794 -13.6909 2.5
      vertex 12.7485 -15.4103 2.5
      vertex 14.5794 -13.6909 0
    endloop
  endfacet
  facet normal 0.770513 -0.637424 0
    outer loop
      vertex 14.5794 -13.6909 2.5
      vertex 14.5794 -13.6909 0
      vertex 16.1803 -11.7557 0
    endloop
  endfacet
  facet normal 0.770513 -0.637424 0
    outer loop
      vertex 16.1803 -11.7557 2.5
      vertex 14.5794 -13.6909 2.5
      vertex 16.1803 -11.7557 0
    endloop
  endfacet
  facet normal 0.844328 -0.535827 0
    outer loop
      vertex 16.1803 -11.7557 2.5
      vertex 16.1803 -11.7557 0
      vertex 17.5261 -9.63507 0
    endloop
  endfacet
  facet normal 0.844328 -0.535827 0
    outer loop
      vertex 17.5261 -9.63507 2.5
      vertex 16.1803 -11.7557 2.5
      vertex 17.5261 -9.63507 0
    endloop
  endfacet
  facet normal 0.904827 -0.425779 0
    outer loop
      vertex 17.5261 -9.63507 2.5
      vertex 17.5261 -9.63507 0
      vertex 18.5955 -7.36249 0
    endloop
  endfacet
  facet normal 0.904827 -0.425779 0
    outer loop
      vertex 18.5955 -7.36249 2.5
      vertex 17.5261 -9.63507 2.5
      vertex 18.5955 -7.36249 0
    endloop
  endfacet
  facet normal 0.951057 -0.309017 0
    outer loop
      vertex 18.5955 -7.36249 2.5
      vertex 18.5955 -7.36249 0
      vertex 19.3717 -4.9738 0
    endloop
  endfacet
  facet normal 0.951057 -0.309017 0
    outer loop
      vertex 19.3717 -4.9738 2.5
      vertex 18.5955 -7.36249 2.5
      vertex 19.3717 -4.9738 0
    endloop
  endfacet
  facet normal 0.982287 -0.187381 0
    outer loop
      vertex 19.3717 -4.9738 2.5
      vertex 19.3717 -4.9738 0
      vertex 19.8423 -2.50666 0
    endloop
  endfacet
  facet normal 0.982287 -0.187381 0
    outer loop
      vertex 19.8423 -2.50666 2.5
      vertex 19.3717 -4.9738 2.5
      vertex 19.8423 -2.50666 0
    endloop
  endfacet
  facet normal 0.998027 -0.0627905 0
    outer loop
      vertex 19.8423 -2.50666 2.5
      vertex 19.8423 -2.50666 0
      vertex 20 0 0
    endloop
  endfacet
  facet normal 0.998027 -0.0627905 0
    outer loop
      vertex 20 0 2.5
      vertex 19.8423 -2.50666 2.5
      vertex 20 0 0
    endloop
  endfacet
  facet normal 0.998027 0.0627905 0
    outer loop
      vertex 20 0 0
      vertex 19.8423 2.50666 0
      vertex 19.8423 2.50666 2.5
    endloop
  endfacet
  facet normal 0.998027 0.0627905 0
    outer loop
      vertex 20 0 2.5
      vertex 20 0 0
      vertex 19.8423 2.50666 2.5
    endloop
  endfacet
  facet normal 0.982287 0.187381 0
    outer loop
      vertex 19.8423 2.50666 0
      vertex 19.3717 4.9738 0
      vertex 19.3717 4.9738 2.5
    endloop
  endfacet
  facet normal 0.982287 0.187381 0
    outer loop
      vertex 19.8423 2.50666 2.5
      vertex 19.8423 2.50666 0
      vertex 19.3717 4.9738 2.5
    endloop
  endfacet
  facet normal 0.951057 0.309017 0
    outer loop
      vertex 19.3717 4.9738 0
      vertex 18.5955 7.36249 0
      vertex 18.5955 7.36249 2.5
    endloop
  endfacet
  facet normal 0.951057 0.309017 0
    outer loop
      vertex 19.3717 4.9738 2.5
      vertex 19.3717 4.9738 0
      vertex 18.5955 7.36249 2.5
    endloop
  endfacet
  facet normal 0.904827 0.425779 0
    outer loop
      vertex 18.5955 7.36249 0
      vertex 17.5261 9.63507 0
      vertex 17.5261 9.63507 2.5
    endloop
  endfacet
  facet normal 0.904827 0.425779 0
    outer loop
      vertex 18.5955 7.36249 2.5
      vertex 18.5955 7.36249 0
      vertex 17.5261 9.63507 2.5
    endloop
  endfacet
  facet normal 0.844328 0.535827 0
    outer loop
      vertex 17.5261 9.63507 0
      vertex 16.1803 11.7557 0
      vertex 16.1803 11.7557 2.5
    endloop
  endfacet
  facet normal 0.844328 0.535827 0
    outer loop
      vertex 17.5261 9.63507 2.5
      vertex 17.5261 9.63507 0
      vertex 16.1803 11.7557 2.5
    endloop
  endfacet
  facet normal 0.770513 0.637424 0
    outer loop
      vertex 16.1803 11.7557 0
      vertex 14.5794 13.6909 0
      vertex 14.5794 13.6909 2.5
    endloop
  endfacet
  facet normal 0.770513 0.637424 0
    outer loop
      vertex 16.1803 11.7557 2.5
      vertex 16.1803 11.7557 0
      vertex 14.5794 13.6909 2.5
    endloop
  endfacet
  facet normal 0.684547 0.728969 0
    outer loop
      vertex 12.7485 15.4103 0
      vertex 12.7485 15.4103 2.5
      vertex 14.5794 13.6909 0
    endloop
  endfacet
  facet normal 0.684547 0.728969 0
    outer loop
      vertex 14.5794 13.6909 0
      vertex 12.7485 15.4103 2.5
      vertex 14.5794 13.6909 2.5
    endloop
  endfacet
  facet normal 0.587785 0.809017 0
    outer loop
      vertex 10.7165 16.8866 0
      vertex 10.7165 16.8866 2.5
      vertex 12.7485 15.4103 0
    endloop
  endfacet
  facet normal 0.587785 0.809017 0
    outer loop
      vertex 12.7485 15.4103 0
      vertex 10.7165 16.8866 2.5
      vertex 12.7485 15.4103 2.5
    endloop
  endfacet
  facet normal 0.481754 0.876307 0
    outer loop
      vertex 8.51559 18.0965 0
      vertex 8.51559 18.0965 2.5
      vertex 10.7165 16.8866 0
    endloop
  endfacet
  facet normal 0.481754 0.876307 0
    outer loop
      vertex 10.7165 16.8866 0
      vertex 8.51559 18.0965 2.5
      vertex 10.7165 16.8866 2.5
    endloop
  endfacet
  facet normal 0.368124 0.929777 0
    outer loop
      vertex 6.18034 19.0211 0
      vertex 6.18034 19.0211 2.5
      vertex 8.51559 18.0965 0
    endloop
  endfacet
  facet normal 0.368124 0.929777 0
    outer loop
      vertex 8.51559 18.0965 0
      vertex 6.18034 19.0211 2.5
      vertex 8.51559 18.0965 2.5
    endloop
  endfacet
  facet normal 0.24869 0.968583 0
    outer loop
      vertex 3.74763 19.6457 0
      vertex 3.74763 19.6457 2.5
      vertex 6.18034 19.0211 0
    endloop
  endfacet
  facet normal 0.24869 0.968583 0
    outer loop
      vertex 6.18034 19.0211 0
      vertex 3.74763 19.6457 2.5
      vertex 6.18034 19.0211 2.5
    endloop
  endfacet
  facet normal 0.125333 0.992115 0
    outer loop
      vertex 1.25581 19.9605 0
      vertex 1.25581 19.9605 2.5
      vertex 3.74763 19.6457 0
    endloop
  endfacet
  facet normal 0.125333 0.992115 0
    outer loop
      vertex 3.74763 19.6457 0
      vertex 1.25581 19.9605 2.5
      vertex 3.74763 19.6457 2.5
    endloop
  endfacet
  facet normal 0 1 0
    outer loop
      vertex -1.25581 19.9605 0
      vertex -1.25581 19.9605 2.5
      vertex 1.25581 19.9605 0
    endloop
  endfacet
  facet normal 0 1 0
    outer loop
      vertex 1.25581 19.9605 0
      vertex -1.25581 19.9605 2.5
      vertex 1.25581 19.9605 2.5
    endloop
  endfacet
  facet normal -0.125333 0.992115 0
    outer loop
      vertex -3.74763 19.6457 0
      vertex -3.74763 19.6457 2.5
      vertex -1.25581 19.9605 0
    endloop
  endfacet
  facet normal -0.125333 0.992115 0
    outer loop
      vertex -1.25581 19.9605 0
      vertex -3.74763 19.6457 2.5
      vertex -1.25581 19.9605 2.5
    endloop
  endfacet
  facet normal -0.24869 0.968583 0
    outer loop
      vertex -6.18034 19.0211 0
      vertex -6.18034 19.0211 2.5
      vertex -3.74763 19.6457 0
    endloop
  endfacet
  facet normal -0.24869 0.968583 0
    outer loop
      vertex -3.74763 19.6457 0
      vertex -6.18034 19.0211 2.5
      vertex -3.74763 19.6457 2.5
    endloop
  endfacet
  facet normal -0.368124 0.929777 0
    outer loop
      vertex -8.51559 18.0965 0
      vertex -8.51559 18.0965 2.5
      vertex -6.18034 19.0211 0
    endloop
  endfacet
  facet normal -0.368124 0.929777 0
    outer loop
      vertex -6.18034 19.0211 0
      vertex -8.51559 18.0965 2.5
      vertex -6.18034 19.0211 2.5
    endloop
  endfacet
  facet normal -0.481754 0.876307 0
    outer loop
      vertex -10.7165 16.8866 0
      vertex -10.7165 16.8866 2.5
      vertex -8.51559 18.0965 0
    endloop
  endfacet
  facet normal -0.481754 0.876307 0
    outer loop
      vertex -8.51559 18.0965 0
      vertex -10.7165 16.8866 2.5
      vertex -8.51559 18.0965 2.5
    endloop
  endfacet
  facet normal -0.587785 0.809017 0
    outer loop
      vertex -12.7485 15.4103 0
      vertex -12.7485 15.4103 2.5
      vertex -10.7165 16.8866 0
    endloop
  endfacet
  facet normal -0.587785 0.809017 0
    outer loop
      vertex -10.7165 16.8866 0
      vertex -12.7485 15.4103 2.5
      vertex -10.7165 16.8866 2.5
    endloop
  endfacet
  facet normal -0.684547 0.728969 0
    outer loop
      vertex -14.5794 13.6909 0
      vertex -14.5794 13.6909 2.5
      vertex -12.7485 15.4103 0
    endloop
  endfacet
  facet normal -0.684547 0.728969 0
    outer loop
      vertex -12.7485 15.4103 0
      vertex -14.5794 13.6909 2.5
      vertex -12.7485 15.4103 2.5
    endloop
  endfacet
  facet normal -0.770513 0.637424 0
    outer loop
      vertex -16.1803 11.7557 0
      vertex -16.1803 11.7557 2.5
      vertex -14.5794 13.6909 0
    endloop
  endfacet
  facet normal -0.770513 0.637424 0
    outer loop
      vertex -14.5794 13.6909 0
      vertex -16.1803 11.7557 2.5
      vertex -14.5794 13.6909 2.5
    endloop
  endfacet
  facet normal -0.844328 0.535827 0
    outer loop
      vertex -17.5261 9.63507 0
      vertex -17.5261 9.63507 2.5
      vertex -16.1803 11.7557 0
    endloop
  endfacet
  facet normal -0.844328 0.535827 0
    outer loop
      vertex -16.1803 11.7557 0
      vertex -17.5261 9.63507 2.5
      vertex -16.1803 11.7557 2.5
    endloop
  endfacet
  facet normal -0.904827 0.425779 0
    outer loop
      vertex -18.5955 7.36249 0
      vertex -18.5955 7.36249 2.5
      vertex -17.5261 9.63507 0
    endloop
  endfacet
  facet normal -0.904827 0.425779 0
    outer loop
      vertex -17.5261 9.63507 0
      vertex -18.5955 7.36249 2.5
      vertex -17.5261 9.63507 2.5
    endloop
  endfacet
  facet normal -0.951057 0.309017 0
    outer loop
      vertex -19.3717 4.9738 0
      vertex -19.3717 4.9738 2.5
      vertex -18.5955 7.36249 0
    endloop
  endfacet
  facet normal -0.951057 0.309017 0
    outer loop
      vertex -18.5955 7.36249 0
      vertex -19.3717 4.9738 2.5
      vertex -18.5955 7.36249 2.5
    endloop
  endfacet
  facet normal -0.982287 0.187381 0
    outer loop
      vertex -19.8423 2.50666 0
      vertex -19.8423 2.50666 2.5
      vertex -19.3717 4.9738 0
    endloop
  endfacet
  facet normal -0.982287 0.187381 0
    outer loop
      vertex -19.3717 4.9738 0
      vertex -19.8423 2.50666 2.5
      vertex -19.3717 4.9738 2.5
    endloop
  endfacet
  facet normal 0 0 1
    outer loop
      vertex -19.8423 2.50666 2.5
      vertex -20 0 2.5
      vertex -19.8423 -2.50666 2.5
    endloop
  endfacet
  facet normal 0 0 1
    outer loop
      vertex -18.5955 -7.36249 2.5
      vertex -19.8423 2.50666 2.5
      vertex -19.3717 -4.9738 2.5
    endloop
  endfacet
  facet normal 0 0 1
    outer loop
      vertex -19.3717 -4.9738 2.5
      vertex -19.8423 2.50666 2.5
      vertex -19.8423 -2.50666 2.5
    endloop
  endfacet
  facet normal 0 0 1
    outer loop
      vertex -17.5261 -9.63507 2.5
      vertex -19.8423 2.50666 2.5
      vertex -18.5955 -7.36249 2.5
    endloop
  endfacet
  facet normal 0 0 1
    outer loop
      vertex -18.8502 -2.38133 2.5
      vertex -19.8423 2.50666 2.5
      vertex -17.5261 -9.63507 2.5
    endloop
  endfacet
  facet normal 0 0 1
    outer loop
      vertex -10.1807 16.0422 2.5
      vertex -8.08981 17.1917 2.5
      vertex -8.51559 18.0965 2.5
    endloop
  endfacet
  facet normal 0 0 1
    outer loop
      vertex -13.8504 13.0064 2.5
      vertex -12.1111 14.6398 2.5
      vertex -10.7165 16.8866 2.5
    endloop
  endfacet
  facet normal 0 0 1
    outer loop
      vertex -16.1803 11.7557 2.5
      vertex -19.8423 2.50666 2.5
      vertex -14.5794 13.6909 2.5
    endloop
  endfacet
  facet normal 0 0 1
    outer loop
      vertex -17.5261 9.63507 2.5
      vertex -19.8423 2.50666 2.5
      vertex -16.1803 11.7557 2.5
    endloop
  endfacet
  facet normal 0 0 1
    outer loop
      vertex -18.5955 7.36249 2.5
      vertex -19.8423 2.50666 2.5
      vertex -17.5261 9.63507 2.5
    endloop
  endfacet
  facet normal 0 0 1
    outer loop
      vertex -19.3717 4.9738 2.5
      vertex -19.8423 2.50666 2.5
      vertex -18.5955 7.36249 2.5
    endloop
  endfacet
  facet normal 0 0 1
    outer loop
      vertex -18.4031 -4.72511 2.5
      vertex -18.8502 -2.38133 2.5
      vertex -17.5261 -9.63507 2.5
    endloop
  endfacet
  facet normal 0 0 1
    outer loop
      vertex 15.3713 -11.1679 2.5
      vertex 13.8504 -13.0064 2.5
      vertex 16.1803 -11.7557 2.5
    endloop
  endfacet
  facet normal 0 0 1
    outer loop
      vertex 17.6658 -6.99437 2.5
      vertex 16.6498 -9.15332 2.5
      vertex 18.5955 -7.36249 2.5
    endloop
  endfacet
  facet normal 0 0 1
    outer loop
      vertex -8.08981 17.1917 2.5
      vertex -5.87132 18.0701 2.5
      vertex -6.18034 19.0211 2.5
    endloop
  endfacet
  facet normal 0 0 1
    outer loop
      vertex -14.5794 13.6909 2.5
      vertex -19.8423 2.50666 2.5
      vertex -17.6658 6.99437 2.5
    endloop
  endfacet
  facet normal 0 0 1
    outer loop
      vertex -14.5794 13.6909 2.5
      vertex -16.6498 9.15332 2.5
      vertex -12.7485 15.4103 2.5
    endloop
  endfacet
  facet normal 0 0 1
    outer loop
      vertex -14.5794 13.6909 2.5
      vertex -17.6658 6.99437 2.5
      vertex -16.6498 9.15332 2.5
    endloop
  endfacet
  facet normal 0 0 1
    outer loop
      vertex -16.6498 9.15332 2.5
      vertex -15.3713 11.1679 2.5
      vertex -12.7485 15.4103 2.5
    endloop
  endfacet
  facet normal 0 0 1
    outer loop
      vertex -12.7485 15.4103 2.5
      vertex -13.8504 13.0064 2.5
      vertex -10.7165 16.8866 2.5
    endloop
  endfacet
  facet normal 0 0 1
    outer loop
      vertex -15.3713 11.1679 2.5
      vertex -13.8504 13.0064 2.5
      vertex -12.7485 15.4103 2.5
    endloop
  endfacet
  facet normal 0 0 1
    outer loop
      vertex -10.7165 16.8866 2.5
      vertex -12.1111 14.6398 2.5
      vertex -8.51559 18.0965 2.5
    endloop
  endfacet
  facet normal 0 0 1
    outer loop
      vertex -12.1111 14.6398 2.5
      vertex -10.1807 16.0422 2.5
      vertex -8.51559 18.0965 2.5
    endloop
  endfacet
  facet normal 0 0 1
    outer loop
      vertex -8.51559 18.0965 2.5
      vertex -8.08981 17.1917 2.5
      vertex -6.18034 19.0211 2.5
    endloop
  endfacet
  facet normal 0 0 1
    outer loop
      vertex -12.1111 -14.6398 2.5
      vertex -13.8504 -13.0064 2.5
      vertex -12.7485 -15.4103 2.5
    endloop
  endfacet
  facet normal 0 0 1
    outer loop
      vertex -6.18034 19.0211 2.5
      vertex -5.87132 18.0701 2.5
      vertex -3.74763 19.6457 2.5
    endloop
  endfacet
  facet normal 0 0 1
    outer loop
      vertex -18.4031 4.72511 2.5
      vertex -17.6658 6.99437 2.5
      vertex -19.8423 2.50666 2.5
    endloop
  endfacet
  facet normal 0 0 1
    outer loop
      vertex -3.74763 19.6457 2.5
      vertex -3.56024 18.6635 2.5
      vertex -1.25581 19.9605 2.5
    endloop
  endfacet
  facet normal 0 0 1
    outer loop
      vertex -1.25581 19.9605 2.5
      vertex -1.19302 18.9625 2.5
      vertex 1.25581 19.9605 2.5
    endloop
  endfacet
  facet normal 0 0 1
    outer loop
      vertex 1.25581 19.9605 2.5
      vertex 1.19302 18.9625 2.5
      vertex 3.74763 19.6457 2.5
    endloop
  endfacet
  facet normal 0 0 1
    outer loop
      vertex 3.74763 19.6457 2.5
      vertex 3.56024 18.6635 2.5
      vertex 6.18034 19.0211 2.5
    endloop
  endfacet
  facet normal 0 0 1
    outer loop
      vertex 6.18034 19.0211 2.5
      vertex 5.87132 18.0701 2.5
      vertex 8.51559 18.0965 2.5
    endloop
  endfacet
  facet normal 0 0 1
    outer loop
      vertex 8.51559 18.0965 2.5
      vertex 8.08981 17.1917 2.5
      vertex 10.7165 16.8866 2.5
    endloop
  endfacet
  facet normal 0 0 1
    outer loop
      vertex 10.7165 16.8866 2.5
      vertex 10.1807 16.0422 2.5
      vertex 12.7485 15.4103 2.5
    endloop
  endfacet
  facet normal 0 0 1
    outer loop
      vertex 12.7485 15.4103 2.5
      vertex 12.1111 14.6398 2.5
      vertex 14.5794 13.6909 2.5
    endloop
  endfacet
  facet normal 0 0 1
    outer loop
      vertex 14.5794 13.6909 2.5
      vertex 13.8504 13.0064 2.5
      vertex 16.1803 11.7557 2.5
    endloop
  endfacet
  facet normal 0 0 1
    outer loop
      vertex 16.1803 11.7557 2.5
      vertex 15.3713 11.1679 2.5
      vertex 17.5261 9.63507 2.5
    endloop
  endfacet
  facet normal 0 0 1
    outer loop
      vertex 17.5261 9.63507 2.5
      vertex 16.6498 9.15332 2.5
      vertex 18.5955 7.36249 2.5
    endloop
  endfacet
  facet normal 0 0 1
    outer loop
      vertex 18.5955 7.36249 2.5
      vertex 17.6658 6.99437 2.5
      vertex 19.3717 4.9738 2.5
    endloop
  endfacet
  facet normal 0 0 1
    outer loop
      vertex 19.3717 4.9738 2.5
      vertex 18.4031 4.72511 2.5
      vertex 19.8423 2.50666 2.5
    endloop
  endfacet
  facet normal 0 0 1
    outer loop
      vertex 19.8423 2.50666 2.5
      vertex 18.8502 2.38133 2.5
      vertex 20 0 2.5
    endloop
  endfacet
  facet normal 0 0 1
    outer loop
      vertex 20 0 2.5
      vertex 19 0 2.5
      vertex 19.8423 -2.50666 2.5
    endloop
  endfacet
  facet normal 0 0 1
    outer loop
      vertex 19 0 2.5
      vertex 18.8502 -2.38133 2.5
      vertex 19.8423 -2.50666 2.5
    endloop
  endfacet
  facet normal 0 0 1
    outer loop
      vertex 19.8423 -2.50666 2.5
      vertex 18.4031 -4.72511 2.5
      vertex 19.3717 -4.9738 2.5
    endloop
  endfacet
  facet normal 0 0 1
    outer loop
      vertex 19.3717 -4.9738 2.5
      vertex 17.6658 -6.99437 2.5
      vertex 18.5955 -7.36249 2.5
    endloop
  endfacet
  facet normal 0 0 1
    outer loop
      vertex -5.87132 18.0701 2.5
      vertex -3.56024 18.6635 2.5
      vertex -3.74763 19.6457 2.5
    endloop
  endfacet
  facet normal 0 0 1
    outer loop
      vertex 18.5955 -7.36249 2.5
      vertex 16.6498 -9.15332 2.5
      vertex 17.5261 -9.63507 2.5
    endloop
  endfacet
  facet normal 0 0 1
    outer loop
      vertex -3.56024 18.6635 2.5
      vertex -1.19302 18.9625 2.5
      vertex -1.25581 19.9605 2.5
    endloop
  endfacet
  facet normal 0 0 1
    outer loop
      vertex 17.5261 -9.63507 2.5
      vertex 15.3713 -11.1679 2.5
      vertex 16.1803 -11.7557 2.5
    endloop
  endfacet
  facet normal 0 0 1
    outer loop
      vertex -1.19302 18.9625 2.5
      vertex 1.19302 18.9625 2.5
      vertex 1.25581 19.9605 2.5
    endloop
  endfacet
  facet normal 0 0 1
    outer loop
      vertex 16.1803 -11.7557 2.5
      vertex 13.8504 -13.0064 2.5
      vertex 14.5794 -13.6909 2.5
    endloop
  endfacet
  facet normal 0 0 1
    outer loop
      vertex 1.19302 18.9625 2.5
      vertex 3.56024 18.6635 2.5
      vertex 3.74763 19.6457 2.5
    endloop
  endfacet
  facet normal 0 0 1
    outer loop
      vertex 14.5794 -13.6909 2.5
      vertex 12.1111 -14.6398 2.5
      vertex 12.7485 -15.4103 2.5
    endloop
  endfacet
  facet normal 0 0 1
    outer loop
      vertex 3.56024 18.6635 2.5
      vertex 5.87132 18.0701 2.5
      vertex 6.18034 19.0211 2.5
    endloop
  endfacet
  facet normal 0 0 1
    outer loop
      vertex 12.7485 -15.4103 2.5
      vertex 10.1807 -16.0422 2.5
      vertex 10.7165 -16.8866 2.5
    endloop
  endfacet
  facet normal 0 0 1
    outer loop
      vertex 5.87132 18.0701 2.5
      vertex 8.08981 17.1917 2.5
      vertex 8.51559 18.0965 2.5
    endloop
  endfacet
  facet normal 0 0 1
    outer loop
      vertex 10.7165 -16.8866 2.5
      vertex 8.08981 -17.1917 2.5
      vertex 8.51559 -18.0965 2.5
    endloop
  endfacet
  facet normal 0 0 1
    outer loop
      vertex 8.08981 17.1917 2.5
      vertex 10.1807 16.0422 2.5
      vertex 10.7165 16.8866 2.5
    endloop
  endfacet
  facet normal 0 0 1
    outer loop
      vertex 8.51559 -18.0965 2.5
      vertex 5.87132 -18.0701 2.5
      vertex 6.18034 -19.0211 2.5
    endloop
  endfacet
  facet normal 0 0 1
    outer loop
      vertex 10.1807 16.0422 2.5
      vertex 12.1111 14.6398 2.5
      vertex 12.7485 15.4103 2.5
    endloop
  endfacet
  facet normal 0 0 1
    outer loop
      vertex 6.18034 -19.0211 2.5
      vertex 3.56024 -18.6635 2.5
      vertex 3.74763 -19.6457 2.5
    endloop
  endfacet
  facet normal 0 0 1
    outer loop
      vertex 12.1111 14.6398 2.5
      vertex 13.8504 13.0064 2.5
      vertex 14.5794 13.6909 2.5
    endloop
  endfacet
  facet normal 0 0 1
    outer loop
      vertex 3.74763 -19.6457 2.5
      vertex 1.19302 -18.9625 2.5
      vertex 1.25581 -19.9605 2.5
    endloop
  endfacet
  facet normal 0 0 1
    outer loop
      vertex 13.8504 13.0064 2.5
      vertex 15.3713 11.1679 2.5
      vertex 16.1803 11.7557 2.5
    endloop
  endfacet
  facet normal 0 0 1
    outer loop
      vertex 1.25581 -19.9605 2.5
      vertex -1.19302 -18.9625 2.5
      vertex -1.25581 -19.9605 2.5
    endloop
  endfacet
  facet normal 0 0 1
    outer loop
      vertex 15.3713 11.1679 2.5
      vertex 16.6498 9.15332 2.5
      vertex 17.5261 9.63507 2.5
    endloop
  endfacet
  facet normal 0 0 1
    outer loop
      vertex -1.25581 -19.9605 2.5
      vertex -3.56024 -18.6635 2.5
      vertex -3.74763 -19.6457 2.5
    endloop
  endfacet
  facet normal 0 0 1
    outer loop
      vertex 16.6498 9.15332 2.5
      vertex 17.6658 6.99437 2.5
      vertex 18.5955 7.36249 2.5
    endloop
  endfacet
  facet normal 0 0 1
    outer loop
      vertex -3.74763 -19.6457 2.5
      vertex -5.87132 -18.0701 2.5
      vertex -6.18034 -19.0211 2.5
    endloop
  endfacet
  facet normal 0 0 1
    outer loop
      vertex 17.6658 6.99437 2.5
      vertex 18.4031 4.72511 2.5
      vertex 19.3717 4.9738 2.5
    endloop
  endfacet
  facet normal 0 0 1
    outer loop
      vertex -6.18034 -19.0211 2.5
      vertex -8.08981 -17.1917 2.5
      vertex -8.51559 -18.0965 2.5
    endloop
  endfacet
  facet normal 0 0 1
    outer loop
      vertex 18.4031 4.72511 2.5
      vertex 18.8502 2.38133 2.5
      vertex 19.8423 2.50666 2.5
    endloop
  endfacet
  facet normal 0 0 1
    outer loop
      vertex -8.51559 -18.0965 2.5
      vertex -10.1807 -16.0422 2.5
      vertex -10.7165 -16.8866 2.5
    endloop
  endfacet
  facet normal 0 0 1
    outer loop
      vertex 18.8502 2.38133 2.5
      vertex 19 0 2.5
      vertex 20 0 2.5
    endloop
  endfacet
  facet normal 0 0 1
    outer loop
      vertex -10.7165 -16.8866 2.5
      vertex -12.1111 -14.6398 2.5
      vertex -12.7485 -15.4103 2.5
    endloop
  endfacet
  facet normal 0 0 1
    outer loop
      vertex 18.8502 -2.38133 2.5
      vertex 18.4031 -4.72511 2.5
      vertex 19.8423 -2.50666 2.5
    endloop
  endfacet
  facet normal 0 0 1
    outer loop
      vertex -12.7485 -15.4103 2.5
      vertex -13.8504 -13.0064 2.5
      vertex -14.5794 -13.6909 2.5
    endloop
  endfacet
  facet normal 0 0 1
    outer loop
      vertex -13.8504 -13.0064 2.5
      vertex -15.3713 -11.1679 2.5
      vertex -14.5794 -13.6909 2.5
    endloop
  endfacet
  facet normal 0 0 1
    outer loop
      vertex -14.5794 -13.6909 2.5
      vertex -16.6498 -9.15332 2.5
      vertex -16.1803 -11.7557 2.5
    endloop
  endfacet
  facet normal 0 0 1
    outer loop
      vertex 16.6498 -9.15332 2.5
      vertex 15.3713 -11.1679 2.5
      vertex 17.5261 -9.63507 2.5
    endloop
  endfacet
  facet normal 0 0 1
    outer loop
      vertex -16.1803 -11.7557 2.5
      vertex -17.6658 -6.99437 2.5
      vertex -17.5261 -9.63507 2.5
    endloop
  endfacet
  facet normal 0 0 1
    outer loop
      vertex -17.6658 -6.99437 2.5
      vertex -18.4031 -4.72511 2.5
      vertex -17.5261 -9.63507 2.5
    endloop
  endfacet
  facet normal 0 0 1
    outer loop
      vertex -18.8502 -2.38133 2.5
      vertex -19 0 2.5
      vertex -19.8423 2.50666 2.5
    endloop
  endfacet
  facet normal 0 0 1
    outer loop
      vertex 13.8504 -13.0064 2.5
      vertex 12.1111 -14.6398 2.5
      vertex 14.5794 -13.6909 2.5
    endloop
  endfacet
  facet normal 0 0 1
    outer loop
      vertex 12.1111 -14.6398 2.5
      vertex 10.1807 -16.0422 2.5
      vertex 12.7485 -15.4103 2.5
    endloop
  endfacet
  facet normal 0 0 1
    outer loop
      vertex 10.1807 -16.0422 2.5
      vertex 8.08981 -17.1917 2.5
      vertex 10.7165 -16.8866 2.5
    endloop
  endfacet
  facet normal 0 0 1
    outer loop
      vertex 8.08981 -17.1917 2.5
      vertex 5.87132 -18.0701 2.5
      vertex 8.51559 -18.0965 2.5
    endloop
  endfacet
  facet normal 0 0 1
    outer loop
      vertex 5.87132 -18.0701 2.5
      vertex 3.56024 -18.6635 2.5
      vertex 6.18034 -19.0211 2.5
    endloop
  endfacet
  facet normal 0 0 1
    outer loop
      vertex 3.56024 -18.6635 2.5
      vertex 1.19302 -18.9625 2.5
      vertex 3.74763 -19.6457 2.5
    endloop
  endfacet
  facet normal 0 0 1
    outer loop
      vertex 1.19302 -18.9625 2.5
      vertex -1.19302 -18.9625 2.5
      vertex 1.25581 -19.9605 2.5
    endloop
  endfacet
  facet normal 0 0 1
    outer loop
      vertex -1.19302 -18.9625 2.5
      vertex -3.56024 -18.6635 2.5
      vertex -1.25581 -19.9605 2.5
    endloop
  endfacet
  facet normal 0 0 1
    outer loop
      vertex -3.56024 -18.6635 2.5
      vertex -5.87132 -18.0701 2.5
      vertex -3.74763 -19.6457 2.5
    endloop
  endfacet
  facet normal 0 0 1
    outer loop
      vertex -5.87132 -18.0701 2.5
      vertex -8.08981 -17.1917 2.5
      vertex -6.18034 -19.0211 2.5
    endloop
  endfacet
  facet normal 0 0 1
    outer loop
      vertex -8.08981 -17.1917 2.5
      vertex -10.1807 -16.0422 2.5
      vertex -8.51559 -18.0965 2.5
    endloop
  endfacet
  facet normal 0 0 1
    outer loop
      vertex -10.1807 -16.0422 2.5
      vertex -12.1111 -14.6398 2.5
      vertex -10.7165 -16.8866 2.5
    endloop
  endfacet
  facet normal 0 0 1
    outer loop
      vertex -16.6498 -9.15332 2.5
      vertex -17.6658 -6.99437 2.5
      vertex -16.1803 -11.7557 2.5
    endloop
  endfacet
  facet normal 0 0 1
    outer loop
      vertex -15.3713 -11.1679 2.5
      vertex -16.6498 -9.15332 2.5
      vertex -14.5794 -13.6909 2.5
    endloop
  endfacet
  facet normal 0 0 1
    outer loop
      vertex -19 0 2.5
      vertex -18.8502 2.38133 2.5
      vertex -19.8423 2.50666 2.5
    endloop
  endfacet
  facet normal 0 0 1
    outer loop
      vertex 18.4031 -4.72511 2.5
      vertex 17.6658 -6.99437 2.5
      vertex 19.3717 -4.9738 2.5
    endloop
  endfacet
  facet normal 0 0 1
    outer loop
      vertex -18.8502 2.38133 2.5
      vertex -18.4031 4.72511 2.5
      vertex -19.8423 2.50666 2.5
    endloop
  endfacet
  facet normal 0.998027 0.0627907 0
    outer loop
      vertex -19 0 2.5
      vertex -18.8502 -2.38133 2.5
      vertex -18.8502 -2.38133 2
    endloop
  endfacet
  facet normal 0.998027 0.0627907 0
    outer loop
      vertex -19 0 2
      vertex -19 0 2.5
      vertex -18.8502 -2.38133 2
    endloop
  endfacet
  facet normal 0.982287 0.187381 0
    outer loop
      vertex -18.8502 -2.38133 2.5
      vertex -18.4031 -4.72511 2.5
      vertex -18.4031 -4.72511 2
    endloop
  endfacet
  facet normal 0.982287 0.187381 0
    outer loop
      vertex -18.8502 -2.38133 2
      vertex -18.8502 -2.38133 2.5
      vertex -18.4031 -4.72511 2
    endloop
  endfacet
  facet normal 0.951057 0.309017 0
    outer loop
      vertex -18.4031 -4.72511 2.5
      vertex -17.6658 -6.99437 2.5
      vertex -17.6658 -6.99437 2
    endloop
  endfacet
  facet normal 0.951057 0.309017 0
    outer loop
      vertex -18.4031 -4.72511 2
      vertex -18.4031 -4.72511 2.5
      vertex -17.6658 -6.99437 2
    endloop
  endfacet
  facet normal 0.904827 0.425779 0
    outer loop
      vertex -17.6658 -6.99437 2.5
      vertex -16.6498 -9.15332 2.5
      vertex -16.6498 -9.15332 2
    endloop
  endfacet
  facet normal 0.904827 0.425779 0
    outer loop
      vertex -17.6658 -6.99437 2
      vertex -17.6658 -6.99437 2.5
      vertex -16.6498 -9.15332 2
    endloop
  endfacet
  facet normal 0.844328 0.535827 0
    outer loop
      vertex -16.6498 -9.15332 2.5
      vertex -15.3713 -11.1679 2.5
      vertex -15.3713 -11.1679 2
    endloop
  endfacet
  facet normal 0.844328 0.535827 0
    outer loop
      vertex -16.6498 -9.15332 2
      vertex -16.6498 -9.15332 2.5
      vertex -15.3713 -11.1679 2
    endloop
  endfacet
  facet normal 0.770513 0.637424 0
    outer loop
      vertex -15.3713 -11.1679 2.5
      vertex -13.8504 -13.0064 2.5
      vertex -13.8504 -13.0064 2
    endloop
  endfacet
  facet normal 0.770513 0.637424 0
    outer loop
      vertex -15.3713 -11.1679 2
      vertex -15.3713 -11.1679 2.5
      vertex -13.8504 -13.0064 2
    endloop
  endfacet
  facet normal 0.684547 0.728969 0
    outer loop
      vertex -12.1111 -14.6398 2.5
      vertex -12.1111 -14.6398 2
      vertex -13.8504 -13.0064 2.5
    endloop
  endfacet
  facet normal 0.684547 0.728969 0
    outer loop
      vertex -13.8504 -13.0064 2.5
      vertex -12.1111 -14.6398 2
      vertex -13.8504 -13.0064 2
    endloop
  endfacet
  facet normal 0.587785 0.809017 0
    outer loop
      vertex -10.1807 -16.0422 2.5
      vertex -10.1807 -16.0422 2
      vertex -12.1111 -14.6398 2.5
    endloop
  endfacet
  facet normal 0.587785 0.809017 0
    outer loop
      vertex -12.1111 -14.6398 2.5
      vertex -10.1807 -16.0422 2
      vertex -12.1111 -14.6398 2
    endloop
  endfacet
  facet normal 0.481754 0.876307 0
    outer loop
      vertex -8.08981 -17.1917 2.5
      vertex -8.08981 -17.1917 2
      vertex -10.1807 -16.0422 2.5
    endloop
  endfacet
  facet normal 0.481754 0.876307 0
    outer loop
      vertex -10.1807 -16.0422 2.5
      vertex -8.08981 -17.1917 2
      vertex -10.1807 -16.0422 2
    endloop
  endfacet
  facet normal 0.368125 0.929776 0
    outer loop
      vertex -5.87132 -18.0701 2.5
      vertex -5.87132 -18.0701 2
      vertex -8.08981 -17.1917 2.5
    endloop
  endfacet
  facet normal 0.368125 0.929776 0
    outer loop
      vertex -8.08981 -17.1917 2.5
      vertex -5.87132 -18.0701 2
      vertex -8.08981 -17.1917 2
    endloop
  endfacet
  facet normal 0.24869 0.968583 0
    outer loop
      vertex -3.56024 -18.6635 2.5
      vertex -3.56024 -18.6635 2
      vertex -5.87132 -18.0701 2.5
    endloop
  endfacet
  facet normal 0.24869 0.968583 0
    outer loop
      vertex -5.87132 -18.0701 2.5
      vertex -3.56024 -18.6635 2
      vertex -5.87132 -18.0701 2
    endloop
  endfacet
  facet normal 0.125333 0.992115 0
    outer loop
      vertex -1.19302 -18.9625 2.5
      vertex -1.19302 -18.9625 2
      vertex -3.56024 -18.6635 2.5
    endloop
  endfacet
  facet normal 0.125333 0.992115 0
    outer loop
      vertex -3.56024 -18.6635 2.5
      vertex -1.19302 -18.9625 2
      vertex -3.56024 -18.6635 2
    endloop
  endfacet
  facet normal 0 1 0
    outer loop
      vertex 1.19302 -18.9625 2.5
      vertex 1.19302 -18.9625 2
      vertex -1.19302 -18.9625 2.5
    endloop
  endfacet
  facet normal 0 1 0
    outer loop
      vertex -1.19302 -18.9625 2.5
      vertex 1.19302 -18.9625 2
      vertex -1.19302 -18.9625 2
    endloop
  endfacet
  facet normal -0.125333 0.992115 0
    outer loop
      vertex 3.56024 -18.6635 2.5
      vertex 3.56024 -18.6635 2
      vertex 1.19302 -18.9625 2.5
    endloop
  endfacet
  facet normal -0.125333 0.992115 0
    outer loop
      vertex 1.19302 -18.9625 2.5
      vertex 3.56024 -18.6635 2
      vertex 1.19302 -18.9625 2
    endloop
  endfacet
  facet normal -0.24869 0.968583 0
    outer loop
      vertex 5.87132 -18.0701 2.5
      vertex 5.87132 -18.0701 2
      vertex 3.56024 -18.6635 2.5
    endloop
  endfacet
  facet normal -0.24869 0.968583 0
    outer loop
      vertex 3.56024 -18.6635 2.5
      vertex 5.87132 -18.0701 2
      vertex 3.56024 -18.6635 2
    endloop
  endfacet
  facet normal -0.368125 0.929776 0
    outer loop
      vertex 8.08981 -17.1917 2.5
      vertex 8.08981 -17.1917 2
      vertex 5.87132 -18.0701 2.5
    endloop
  endfacet
  facet normal -0.368125 0.929776 0
    outer loop
      vertex 5.87132 -18.0701 2.5
      vertex 8.08981 -17.1917 2
      vertex 5.87132 -18.0701 2
    endloop
  endfacet
  facet normal -0.481754 0.876307 0
    outer loop
      vertex 10.1807 -16.0422 2.5
      vertex 10.1807 -16.0422 2
      vertex 8.08981 -17.1917 2.5
    endloop
  endfacet
  facet normal -0.481754 0.876307 0
    outer loop
      vertex 8.08981 -17.1917 2.5
      vertex 10.1807 -16.0422 2
      vertex 8.08981 -17.1917 2
    endloop
  endfacet
  facet normal -0.587785 0.809017 0
    outer loop
      vertex 12.1111 -14.6398 2.5
      vertex 12.1111 -14.6398 2
      vertex 10.1807 -16.0422 2.5
    endloop
  endfacet
  facet normal -0.587785 0.809017 0
    outer loop
      vertex 10.1807 -16.0422 2.5
      vertex 12.1111 -14.6398 2
      vertex 10.1807 -16.0422 2
    endloop
  endfacet
  facet normal -0.684547 0.728969 0
    outer loop
      vertex 13.8504 -13.0064 2.5
      vertex 13.8504 -13.0064 2
      vertex 12.1111 -14.6398 2.5
    endloop
  endfacet
  facet normal -0.684547 0.728969 0
    outer loop
      vertex 12.1111 -14.6398 2.5
      vertex 13.8504 -13.0064 2
      vertex 12.1111 -14.6398 2
    endloop
  endfacet
  facet normal -0.770513 0.637424 0
    outer loop
      vertex 15.3713 -11.1679 2.5
      vertex 15.3713 -11.1679 2
      vertex 13.8504 -13.0064 2.5
    endloop
  endfacet
  facet normal -0.770513 0.637424 0
    outer loop
      vertex 13.8504 -13.0064 2.5
      vertex 15.3713 -11.1679 2
      vertex 13.8504 -13.0064 2
    endloop
  endfacet
  facet normal -0.844328 0.535827 0
    outer loop
      vertex 16.6498 -9.15332 2.5
      vertex 16.6498 -9.15332 2
      vertex 15.3713 -11.1679 2.5
    endloop
  endfacet
  facet normal -0.844328 0.535827 0
    outer loop
      vertex 15.3713 -11.1679 2.5
      vertex 16.6498 -9.15332 2
      vertex 15.3713 -11.1679 2
    endloop
  endfacet
  facet normal -0.904827 0.425779 0
    outer loop
      vertex 17.6658 -6.99437 2.5
      vertex 17.6658 -6.99437 2
      vertex 16.6498 -9.15332 2.5
    endloop
  endfacet
  facet normal -0.904827 0.425779 0
    outer loop
      vertex 16.6498 -9.15332 2.5
      vertex 17.6658 -6.99437 2
      vertex 16.6498 -9.15332 2
    endloop
  endfacet
  facet normal -0.951057 0.309017 0
    outer loop
      vertex 18.4031 -4.72511 2.5
      vertex 18.4031 -4.72511 2
      vertex 17.6658 -6.99437 2.5
    endloop
  endfacet
  facet normal -0.951057 0.309017 0
    outer loop
      vertex 17.6658 -6.99437 2.5
      vertex 18.4031 -4.72511 2
      vertex 17.6658 -6.99437 2
    endloop
  endfacet
  facet normal -0.982287 0.187381 0
    outer loop
      vertex 18.8502 -2.38133 2.5
      vertex 18.8502 -2.38133 2
      vertex 18.4031 -4.72511 2.5
    endloop
  endfacet
  facet normal -0.982287 0.187381 0
    outer loop
      vertex 18.4031 -4.72511 2.5
      vertex 18.8502 -2.38133 2
      vertex 18.4031 -4.72511 2
    endloop
  endfacet
  facet normal -0.998027 0.0627907 0
    outer loop
      vertex 19 0 2.5
      vertex 19 0 2
      vertex 18.8502 -2.38133 2.5
    endloop
  endfacet
  facet normal -0.998027 0.0627907 0
    outer loop
      vertex 18.8502 -2.38133 2.5
      vertex 19 0 2
      vertex 18.8502 -2.38133 2
    endloop
  endfacet
  facet normal -0.998027 -0.0627907 0
    outer loop
      vertex 19 0 2.5
      vertex 18.8502 2.38133 2.5
      vertex 19 0 2
    endloop
  endfacet
  facet normal -0.998027 -0.0627907 0
    outer loop
      vertex 19 0 2
      vertex 18.8502 2.38133 2.5
      vertex 18.8502 2.38133 2
    endloop
  endfacet
  facet normal -0.982287 -0.187381 0
    outer loop
      vertex 18.8502 2.38133 2.5
      vertex 18.4031 4.72511 2.5
      vertex 18.8502 2.38133 2
    endloop
  endfacet
  facet normal -0.982287 -0.187381 0
    outer loop
      vertex 18.8502 2.38133 2
      vertex 18.4031 4.72511 2.5
      vertex 18.4031 4.72511 2
    endloop
  endfacet
  facet normal -0.951057 -0.309017 0
    outer loop
      vertex 18.4031 4.72511 2.5
      vertex 17.6658 6.99437 2.5
      vertex 18.4031 4.72511 2
    endloop
  endfacet
  facet normal -0.951057 -0.309017 0
    outer loop
      vertex 18.4031 4.72511 2
      vertex 17.6658 6.99437 2.5
      vertex 17.6658 6.99437 2
    endloop
  endfacet
  facet normal -0.904827 -0.425779 0
    outer loop
      vertex 17.6658 6.99437 2.5
      vertex 16.6498 9.15332 2.5
      vertex 17.6658 6.99437 2
    endloop
  endfacet
  facet normal -0.904827 -0.425779 0
    outer loop
      vertex 17.6658 6.99437 2
      vertex 16.6498 9.15332 2.5
      vertex 16.6498 9.15332 2
    endloop
  endfacet
  facet normal -0.844328 -0.535827 0
    outer loop
      vertex 16.6498 9.15332 2.5
      vertex 15.3713 11.1679 2.5
      vertex 16.6498 9.15332 2
    endloop
  endfacet
  facet normal -0.844328 -0.535827 0
    outer loop
      vertex 16.6498 9.15332 2
      vertex 15.3713 11.1679 2.5
      vertex 15.3713 11.1679 2
    endloop
  endfacet
  facet normal -0.770513 -0.637424 0
    outer loop
      vertex 15.3713 11.1679 2.5
      vertex 13.8504 13.0064 2.5
      vertex 15.3713 11.1679 2
    endloop
  endfacet
  facet normal -0.770513 -0.637424 0
    outer loop
      vertex 15.3713 11.1679 2
      vertex 13.8504 13.0064 2.5
      vertex 13.8504 13.0064 2
    endloop
  endfacet
  facet normal -0.684547 -0.728969 0
    outer loop
      vertex 13.8504 13.0064 2
      vertex 13.8504 13.0064 2.5
      vertex 12.1111 14.6398 2.5
    endloop
  endfacet
  facet normal -0.684547 -0.728969 0
    outer loop
      vertex 12.1111 14.6398 2
      vertex 13.8504 13.0064 2
      vertex 12.1111 14.6398 2.5
    endloop
  endfacet
  facet normal -0.587785 -0.809017 0
    outer loop
      vertex 12.1111 14.6398 2
      vertex 12.1111 14.6398 2.5
      vertex 10.1807 16.0422 2.5
    endloop
  endfacet
  facet normal -0.587785 -0.809017 0
    outer loop
      vertex 10.1807 16.0422 2
      vertex 12.1111 14.6398 2
      vertex 10.1807 16.0422 2.5
    endloop
  endfacet
  facet normal -0.481754 -0.876307 0
    outer loop
      vertex 10.1807 16.0422 2
      vertex 10.1807 16.0422 2.5
      vertex 8.08981 17.1917 2.5
    endloop
  endfacet
  facet normal -0.481754 -0.876307 0
    outer loop
      vertex 8.08981 17.1917 2
      vertex 10.1807 16.0422 2
      vertex 8.08981 17.1917 2.5
    endloop
  endfacet
  facet normal -0.368125 -0.929776 0
    outer loop
      vertex 8.08981 17.1917 2
      vertex 8.08981 17.1917 2.5
      vertex 5.87132 18.0701 2.5
    endloop
  endfacet
  facet normal -0.368125 -0.929776 0
    outer loop
      vertex 5.87132 18.0701 2
      vertex 8.08981 17.1917 2
      vertex 5.87132 18.0701 2.5
    endloop
  endfacet
  facet normal -0.24869 -0.968583 0
    outer loop
      vertex 5.87132 18.0701 2
      vertex 5.87132 18.0701 2.5
      vertex 3.56024 18.6635 2.5
    endloop
  endfacet
  facet normal -0.24869 -0.968583 0
    outer loop
      vertex 3.56024 18.6635 2
      vertex 5.87132 18.0701 2
      vertex 3.56024 18.6635 2.5
    endloop
  endfacet
  facet normal -0.125333 -0.992115 0
    outer loop
      vertex 3.56024 18.6635 2
      vertex 3.56024 18.6635 2.5
      vertex 1.19302 18.9625 2.5
    endloop
  endfacet
  facet normal -0.125333 -0.992115 0
    outer loop
      vertex 1.19302 18.9625 2
      vertex 3.56024 18.6635 2
      vertex 1.19302 18.9625 2.5
    endloop
  endfacet
  facet normal 0 -1 0
    outer loop
      vertex 1.19302 18.9625 2
      vertex 1.19302 18.9625 2.5
      vertex -1.19302 18.9625 2.5
    endloop
  endfacet
  facet normal 0 -1 0
    outer loop
      vertex -1.19302 18.9625 2
      vertex 1.19302 18.9625 2
      vertex -1.19302 18.9625 2.5
    endloop
  endfacet
  facet normal 0.125333 -0.992115 0
    outer loop
      vertex -1.19302 18.9625 2
      vertex -1.19302 18.9625 2.5
      vertex -3.56024 18.6635 2.5
    endloop
  endfacet
  facet normal 0.125333 -0.992115 0
    outer loop
      vertex -3.56024 18.6635 2
      vertex -1.19302 18.9625 2
      vertex -3.56024 18.6635 2.5
    endloop
  endfacet
  facet normal 0.24869 -0.968583 0
    outer loop
      vertex -3.56024 18.6635 2
      vertex -3.56024 18.6635 2.5
      vertex -5.87132 18.0701 2.5
    endloop
  endfacet
  facet normal 0.24869 -0.968583 0
    outer loop
      vertex -5.87132 18.0701 2
      vertex -3.56024 18.6635 2
      vertex -5.87132 18.0701 2.5
    endloop
  endfacet
  facet normal 0.368125 -0.929776 0
    outer loop
      vertex -5.87132 18.0701 2
      vertex -5.87132 18.0701 2.5
      vertex -8.08981 17.1917 2.5
    endloop
  endfacet
  facet normal 0.368125 -0.929776 0
    outer loop
      vertex -8.08981 17.1917 2
      vertex -5.87132 18.0701 2
      vertex -8.08981 17.1917 2.5
    endloop
  endfacet
  facet normal 0.481754 -0.876307 0
    outer loop
      vertex -8.08981 17.1917 2
      vertex -8.08981 17.1917 2.5
      vertex -10.1807 16.0422 2.5
    endloop
  endfacet
  facet normal 0.481754 -0.876307 0
    outer loop
      vertex -10.1807 16.0422 2
      vertex -8.08981 17.1917 2
      vertex -10.1807 16.0422 2.5
    endloop
  endfacet
  facet normal 0.587785 -0.809017 0
    outer loop
      vertex -10.1807 16.0422 2
      vertex -10.1807 16.0422 2.5
      vertex -12.1111 14.6398 2.5
    endloop
  endfacet
  facet normal 0.587785 -0.809017 0
    outer loop
      vertex -12.1111 14.6398 2
      vertex -10.1807 16.0422 2
      vertex -12.1111 14.6398 2.5
    endloop
  endfacet
  facet normal 0.684547 -0.728969 0
    outer loop
      vertex -12.1111 14.6398 2
      vertex -12.1111 14.6398 2.5
      vertex -13.8504 13.0064 2.5
    endloop
  endfacet
  facet normal 0.684547 -0.728969 0
    outer loop
      vertex -13.8504 13.0064 2
      vertex -12.1111 14.6398 2
      vertex -13.8504 13.0064 2.5
    endloop
  endfacet
  facet normal 0.770513 -0.637424 0
    outer loop
      vertex -13.8504 13.0064 2
      vertex -13.8504 13.0064 2.5
      vertex -15.3713 11.1679 2.5
    endloop
  endfacet
  facet normal 0.770513 -0.637424 0
    outer loop
      vertex -15.3713 11.1679 2
      vertex -13.8504 13.0064 2
      vertex -15.3713 11.1679 2.5
    endloop
  endfacet
  facet normal 0.844328 -0.535827 0
    outer loop
      vertex -15.3713 11.1679 2
      vertex -15.3713 11.1679 2.5
      vertex -16.6498 9.15332 2.5
    endloop
  endfacet
  facet normal 0.844328 -0.535827 0
    outer loop
      vertex -16.6498 9.15332 2
      vertex -15.3713 11.1679 2
      vertex -16.6498 9.15332 2.5
    endloop
  endfacet
  facet normal 0.904827 -0.425779 0
    outer loop
      vertex -16.6498 9.15332 2
      vertex -16.6498 9.15332 2.5
      vertex -17.6658 6.99437 2.5
    endloop
  endfacet
  facet normal 0.904827 -0.425779 0
    outer loop
      vertex -17.6658 6.99437 2
      vertex -16.6498 9.15332 2
      vertex -17.6658 6.99437 2.5
    endloop
  endfacet
  facet normal 0.951057 -0.309017 0
    outer loop
      vertex -17.6658 6.99437 2
      vertex -17.6658 6.99437 2.5
      vertex -18.4031 4.72511 2.5
    endloop
  endfacet
  facet normal 0.951057 -0.309017 0
    outer loop
      vertex -18.4031 4.72511 2
      vertex -17.6658 6.99437 2
      vertex -18.4031 4.72511 2.5
    endloop
  endfacet
  facet normal 0.982287 -0.187381 0
    outer loop
      vertex -18.4031 4.72511 2
      vertex -18.4031 4.72511 2.5
      vertex -18.8502 2.38133 2.5
    endloop
  endfacet
  facet normal 0.982287 -0.187381 0
    outer loop
      vertex -18.8502 2.38133 2
      vertex -18.4031 4.72511 2
      vertex -18.8502 2.38133 2.5
    endloop
  endfacet
  facet normal 0.998027 -0.0627907 0
    outer loop
      vertex -18.8502 2.38133 2
      vertex -18.8502 2.38133 2.5
      vertex -19 0 2.5
    endloop
  endfacet
  facet normal 0.998027 -0.0627907 0
    outer loop
      vertex -19 0 2
      vertex -18.8502 2.38133 2
      vertex -19 0 2.5
    endloop
  endfacet
  facet normal 0 0 1
    outer loop
      vertex -18.8502 2.38133 2
      vertex -19 0 2
      vertex -18.8502 -2.38133 2
    endloop
  endfacet
  facet normal 0 0 1
    outer loop
      vertex -17.6658 -6.99437 2
      vertex -18.8502 2.38133 2
      vertex -18.4031 -4.72511 2
    endloop
  endfacet
  facet normal 0 0 1
    outer loop
      vertex -18.4031 -4.72511 2
      vertex -18.8502 2.38133 2
      vertex -18.8502 -2.38133 2
    endloop
  endfacet
  facet normal 0 0 1
    outer loop
      vertex -16.6498 -9.15332 2
      vertex -18.8502 2.38133 2
      vertex -17.6658 -6.99437 2
    endloop
  endfacet
  facet normal 0 0 1
    outer loop
      vertex -15.3713 -11.1679 2
      vertex -18.8502 2.38133 2
      vertex -16.6498 -9.15332 2
    endloop
  endfacet
  facet normal 0 0 1
    outer loop
      vertex -13.8504 -13.0064 2
      vertex -18.8502 2.38133 2
      vertex -15.3713 -11.1679 2
    endloop
  endfacet
  facet normal 0 0 1
    outer loop
      vertex -12.1111 -14.6398 2
      vertex -18.8502 2.38133 2
      vertex -13.8504 -13.0064 2
    endloop
  endfacet
  facet normal 0 0 1
    outer loop
      vertex -10.1807 -16.0422 2
      vertex -18.8502 2.38133 2
      vertex -12.1111 -14.6398 2
    endloop
  endfacet
  facet normal 0 0 1
    outer loop
      vertex -8.08981 -17.1917 2
      vertex -18.8502 2.38133 2
      vertex -10.1807 -16.0422 2
    endloop
  endfacet
  facet normal 0 0 1
    outer loop
      vertex -5.87132 -18.0701 2
      vertex -18.8502 2.38133 2
      vertex -8.08981 -17.1917 2
    endloop
  endfacet
  facet normal 0 0 1
    outer loop
      vertex -3.56024 -18.6635 2
      vertex -18.8502 2.38133 2
      vertex -5.87132 -18.0701 2
    endloop
  endfacet
  facet normal 0 0 1
    outer loop
      vertex -1.19302 -18.9625 2
      vertex -18.8502 2.38133 2
      vertex -3.56024 -18.6635 2
    endloop
  endfacet
  facet normal 0 0 1
    outer loop
      vertex 1.19302 -18.9625 2
      vertex -18.8502 2.38133 2
      vertex -1.19302 -18.9625 2
    endloop
  endfacet
  facet normal 0 0 1
    outer loop
      vertex 3.56024 -18.6635 2
      vertex -18.8502 2.38133 2
      vertex 1.19302 -18.9625 2
    endloop
  endfacet
  facet normal 0 0 1
    outer loop
      vertex 5.87132 -18.0701 2
      vertex -18.8502 2.38133 2
      vertex 3.56024 -18.6635 2
    endloop
  endfacet
  facet normal 0 0 1
    outer loop
      vertex 8.08981 -17.1917 2
      vertex -18.8502 2.38133 2
      vertex 5.87132 -18.0701 2
    endloop
  endfacet
  facet normal 0 0 1
    outer loop
      vertex 10.1807 -16.0422 2
      vertex -18.8502 2.38133 2
      vertex 8.08981 -17.1917 2
    endloop
  endfacet
  facet normal 0 0 1
    outer loop
      vertex 12.1111 -14.6398 2
      vertex -18.8502 2.38133 2
      vertex 10.1807 -16.0422 2
    endloop
  endfacet
  facet normal 0 0 1
    outer loop
      vertex 13.8504 -13.0064 2
      vertex -18.8502 2.38133 2
      vertex 12.1111 -14.6398 2
    endloop
  endfacet
  facet normal 0 0 1
    outer loop
      vertex 15.3713 -11.1679 2
      vertex -18.8502 2.38133 2
      vertex 13.8504 -13.0064 2
    endloop
  endfacet
  facet normal 0 0 1
    outer loop
      vertex 16.6498 -9.15332 2
      vertex -18.8502 2.38133 2
      vertex 15.3713 -11.1679 2
    endloop
  endfacet
  facet normal 0 0 1
    outer loop
      vertex 17.6658 -6.99437 2
      vertex -18.8502 2.38133 2
      vertex 16.6498 -9.15332 2
    endloop
  endfacet
  facet normal 0 0 1
    outer loop
      vertex 18.4031 -4.72511 2
      vertex -18.8502 2.38133 2
      vertex 17.6658 -6.99437 2
    endloop
  endfacet
  facet normal 0 0 1
    outer loop
      vertex 18.8502 -2.38133 2
      vertex -18.8502 2.38133 2
      vertex 18.4031 -4.72511 2
    endloop
  endfacet
  facet normal 0 0 1
    outer loop
      vertex 19 0 2
      vertex -18.8502 2.38133 2
      vertex 18.8502 -2.38133 2
    endloop
  endfacet
  facet normal 0 0 1
    outer loop
      vertex 18.8502 2.38133 2
      vertex -18.8502 2.38133 2
      vertex 19 0 2
    endloop
  endfacet
  facet normal 0 0 1
    outer loop
      vertex 18.4031 4.72511 2
      vertex -18.8502 2.38133 2
      vertex 18.8502 2.38133 2
    endloop
  endfacet
  facet normal 0 0 1
    outer loop
      vertex 17.6658 6.99437 2
      vertex -18.8502 2.38133 2
      vertex 18.4031 4.72511 2
    endloop
  endfacet
  facet normal 0 0 1
    outer loop
      vertex 0 5.25 2
      vertex -18.8502 2.38133 2
      vertex 17.6658 6.99437 2
    endloop
  endfacet
  facet normal 0 0 1
    outer loop
      vertex 0 5.25 2
      vertex -0.54078 5.33565 2
      vertex -18.8502 2.38133 2
    endloop
  endfacet
  facet normal 0 0 1
    outer loop
      vertex 0.54078 8.66435 2
      vertex 1.02862 8.41578 2
      vertex 13.8504 13.0064 2
    endloop
  endfacet
  facet normal 0 0 1
    outer loop
      vertex 10.1807 16.0422 2
      vertex -18.8502 2.38133 2
      vertex 12.1111 14.6398 2
    endloop
  endfacet
  facet normal 0 0 1
    outer loop
      vertex 8.08981 17.1917 2
      vertex -18.8502 2.38133 2
      vertex 10.1807 16.0422 2
    endloop
  endfacet
  facet normal 0 0 1
    outer loop
      vertex 5.87132 18.0701 2
      vertex -18.8502 2.38133 2
      vertex 8.08981 17.1917 2
    endloop
  endfacet
  facet normal 0 0 1
    outer loop
      vertex 3.56024 18.6635 2
      vertex -18.8502 2.38133 2
      vertex 5.87132 18.0701 2
    endloop
  endfacet
  facet normal 0 0 1
    outer loop
      vertex 1.19302 18.9625 2
      vertex -18.8502 2.38133 2
      vertex 3.56024 18.6635 2
    endloop
  endfacet
  facet normal 0 0 1
    outer loop
      vertex -1.19302 18.9625 2
      vertex -18.8502 2.38133 2
      vertex 1.19302 18.9625 2
    endloop
  endfacet
  facet normal 0 0 1
    outer loop
      vertex -3.56024 18.6635 2
      vertex -18.8502 2.38133 2
      vertex -1.19302 18.9625 2
    endloop
  endfacet
  facet normal 0 0 1
    outer loop
      vertex -5.87132 18.0701 2
      vertex -18.8502 2.38133 2
      vertex -3.56024 18.6635 2
    endloop
  endfacet
  facet normal 0 0 1
    outer loop
      vertex -8.08981 17.1917 2
      vertex -18.8502 2.38133 2
      vertex -5.87132 18.0701 2
    endloop
  endfacet
  facet normal 0 0 1
    outer loop
      vertex -10.1807 16.0422 2
      vertex -18.8502 2.38133 2
      vertex -8.08981 17.1917 2
    endloop
  endfacet
  facet normal 0 0 1
    outer loop
      vertex -12.1111 14.6398 2
      vertex -18.8502 2.38133 2
      vertex -10.1807 16.0422 2
    endloop
  endfacet
  facet normal 0 0 1
    outer loop
      vertex -13.8504 13.0064 2
      vertex -18.8502 2.38133 2
      vertex -12.1111 14.6398 2
    endloop
  endfacet
  facet normal 0 0 1
    outer loop
      vertex -15.3713 11.1679 2
      vertex -18.8502 2.38133 2
      vertex -13.8504 13.0064 2
    endloop
  endfacet
  facet normal 0 0 1
    outer loop
      vertex -16.6498 9.15332 2
      vertex -18.8502 2.38133 2
      vertex -15.3713 11.1679 2
    endloop
  endfacet
  facet normal 0 0 1
    outer loop
      vertex -17.6658 6.99437 2
      vertex -18.8502 2.38133 2
      vertex -16.6498 9.15332 2
    endloop
  endfacet
  facet normal 0 0 1
    outer loop
      vertex -18.4031 4.72511 2
      vertex -18.8502 2.38133 2
      vertex -17.6658 6.99437 2
    endloop
  endfacet
  facet normal 0 0 1
    outer loop
      vertex 0 8.75 2
      vertex 0.54078 8.66435 2
      vertex 13.8504 13.0064 2
    endloop
  endfacet
  facet normal 0 0 1
    outer loop
      vertex 1.66435 7.54078 2
      vertex 1.75 7 2
      vertex 15.3713 11.1679 2
    endloop
  endfacet
  facet normal 0 0 1
    outer loop
      vertex -1.66435 7.54078 2
      vertex -18.8502 2.38133 2
      vertex -1.75 7 2
    endloop
  endfacet
  facet normal 0 0 1
    outer loop
      vertex -1.41578 8.02862 2
      vertex -18.8502 2.38133 2
      vertex -1.66435 7.54078 2
    endloop
  endfacet
  facet normal 0 0 1
    outer loop
      vertex -0.54078 8.66435 2
      vertex 0 8.75 2
      vertex 12.1111 14.6398 2
    endloop
  endfacet
  facet normal 0 0 1
    outer loop
      vertex 1.66435 6.45922 2
      vertex 1.41578 5.97138 2
      vertex 16.6498 9.15332 2
    endloop
  endfacet
  facet normal 0 0 1
    outer loop
      vertex -0.54078 8.66435 2
      vertex -18.8502 2.38133 2
      vertex -1.02862 8.41578 2
    endloop
  endfacet
  facet normal 0 0 1
    outer loop
      vertex 12.1111 14.6398 2
      vertex -18.8502 2.38133 2
      vertex -0.54078 8.66435 2
    endloop
  endfacet
  facet normal 0 0 1
    outer loop
      vertex 12.1111 14.6398 2
      vertex 0 8.75 2
      vertex 13.8504 13.0064 2
    endloop
  endfacet
  facet normal 0 0 1
    outer loop
      vertex 1.02862 8.41578 2
      vertex 1.41578 8.02862 2
      vertex 13.8504 13.0064 2
    endloop
  endfacet
  facet normal 0 0 1
    outer loop
      vertex 1.41578 8.02862 2
      vertex 1.66435 7.54078 2
      vertex 15.3713 11.1679 2
    endloop
  endfacet
  facet normal 0 0 1
    outer loop
      vertex 13.8504 13.0064 2
      vertex 1.41578 8.02862 2
      vertex 15.3713 11.1679 2
    endloop
  endfacet
  facet normal 0 0 1
    outer loop
      vertex 1.75 7 2
      vertex 1.66435 6.45922 2
      vertex 16.6498 9.15332 2
    endloop
  endfacet
  facet normal 0 0 1
    outer loop
      vertex -1.41578 8.02862 2
      vertex -1.02862 8.41578 2
      vertex -18.8502 2.38133 2
    endloop
  endfacet
  facet normal 0 0 1
    outer loop
      vertex 15.3713 11.1679 2
      vertex 1.75 7 2
      vertex 16.6498 9.15332 2
    endloop
  endfacet
  facet normal 0 0 1
    outer loop
      vertex 16.6498 9.15332 2
      vertex 1.41578 5.97138 2
      vertex 17.6658 6.99437 2
    endloop
  endfacet
  facet normal 0 0 1
    outer loop
      vertex 1.41578 5.97138 2
      vertex 1.02862 5.58422 2
      vertex 17.6658 6.99437 2
    endloop
  endfacet
  facet normal 0 0 1
    outer loop
      vertex 1.02862 5.58422 2
      vertex 0.54078 5.33565 2
      vertex 17.6658 6.99437 2
    endloop
  endfacet
  facet normal 0 0 1
    outer loop
      vertex -0.54078 5.33565 2
      vertex -1.02862 5.58422 2
      vertex -18.8502 2.38133 2
    endloop
  endfacet
  facet normal 0 0 1
    outer loop
      vertex 0.54078 5.33565 2
      vertex 0 5.25 2
      vertex 17.6658 6.99437 2
    endloop
  endfacet
  facet normal 0 0 1
    outer loop
      vertex -1.02862 5.58422 2
      vertex -1.41578 5.97138 2
      vertex -18.8502 2.38133 2
    endloop
  endfacet
  facet normal 0 0 1
    outer loop
      vertex -1.66435 6.45922 2
      vertex -18.8502 2.38133 2
      vertex -1.41578 5.97138 2
    endloop
  endfacet
  facet normal 0 0 1
    outer loop
      vertex -1.66435 6.45922 2
      vertex -1.75 7 2
      vertex -18.8502 2.38133 2
    endloop
  endfacet
  facet normal -0.987688 -0.156434 0
    outer loop
      vertex -1.75 7 2
      vertex -1.66435 6.45922 2
      vertex -1.75 7 6
    endloop
  endfacet
  facet normal -0.987688 -0.156434 0
    outer loop
      vertex -1.75 7 6
      vertex -1.66435 6.45922 2
      vertex -1.66435 6.45922 6
    endloop
  endfacet
  facet normal -0.891006 -0.453991 0
    outer loop
      vertex -1.66435 6.45922 2
      vertex -1.41578 5.97138 2
      vertex -1.66435 6.45922 6
    endloop
  endfacet
  facet normal -0.891006 -0.453991 0
    outer loop
      vertex -1.66435 6.45922 6
      vertex -1.41578 5.97138 2
      vertex -1.41578 5.97138 6
    endloop
  endfacet
  facet normal -0.707107 -0.707107 0
    outer loop
      vertex -1.41578 5.97138 6
      vertex -1.41578 5.97138 2
      vertex -1.02862 5.58422 2
    endloop
  endfacet
  facet normal -0.707107 -0.707107 0
    outer loop
      vertex -1.02862 5.58422 6
      vertex -1.41578 5.97138 6
      vertex -1.02862 5.58422 2
    endloop
  endfacet
  facet normal -0.453991 -0.891006 0
    outer loop
      vertex -1.02862 5.58422 6
      vertex -1.02862 5.58422 2
      vertex -0.54078 5.33565 2
    endloop
  endfacet
  facet normal -0.453991 -0.891006 0
    outer loop
      vertex -0.54078 5.33565 6
      vertex -1.02862 5.58422 6
      vertex -0.54078 5.33565 2
    endloop
  endfacet
  facet normal -0.156434 -0.987688 0
    outer loop
      vertex -0.54078 5.33565 6
      vertex -0.54078 5.33565 2
      vertex 0 5.25 2
    endloop
  endfacet
  facet normal -0.156434 -0.987688 0
    outer loop
      vertex 0 5.25 6
      vertex -0.54078 5.33565 6
      vertex 0 5.25 2
    endloop
  endfacet
  facet normal 0.156434 -0.987688 0
    outer loop
      vertex 0 5.25 6
      vertex 0 5.25 2
      vertex 0.54078 5.33565 2
    endloop
  endfacet
  facet normal 0.156434 -0.987688 0
    outer loop
      vertex 0.54078 5.33565 6
      vertex 0 5.25 6
      vertex 0.54078 5.33565 2
    endloop
  endfacet
  facet normal 0.453991 -0.891006 0
    outer loop
      vertex 0.54078 5.33565 6
      vertex 0.54078 5.33565 2
      vertex 1.02862 5.58422 2
    endloop
  endfacet
  facet normal 0.453991 -0.891006 0
    outer loop
      vertex 1.02862 5.58422 6
      vertex 0.54078 5.33565 6
      vertex 1.02862 5.58422 2
    endloop
  endfacet
  facet normal 0.707107 -0.707107 0
    outer loop
      vertex 1.02862 5.58422 6
      vertex 1.02862 5.58422 2
      vertex 1.41578 5.97138 2
    endloop
  endfacet
  facet normal 0.707107 -0.707107 0
    outer loop
      vertex 1.41578 5.97138 6
      vertex 1.02862 5.58422 6
      vertex 1.41578 5.97138 2
    endloop
  endfacet
  facet normal 0.891006 -0.453991 0
    outer loop
      vertex 1.41578 5.97138 6
      vertex 1.41578 5.97138 2
      vertex 1.66435 6.45922 2
    endloop
  endfacet
  facet normal 0.891006 -0.453991 0
    outer loop
      vertex 1.66435 6.45922 6
      vertex 1.41578 5.97138 6
      vertex 1.66435 6.45922 2
    endloop
  endfacet
  facet normal 0.987688 -0.156434 0
    outer loop
      vertex 1.66435 6.45922 6
      vertex 1.66435 6.45922 2
      vertex 1.75 7 2
    endloop
  endfacet
  facet normal 0.987688 -0.156434 0
    outer loop
      vertex 1.75 7 6
      vertex 1.66435 6.45922 6
      vertex 1.75 7 2
    endloop
  endfacet
  facet normal 0.987688 0.156434 0
    outer loop
      vertex 1.75 7 2
      vertex 1.66435 7.54078 2
      vertex 1.66435 7.54078 6
    endloop
  endfacet
  facet normal 0.987688 0.156434 0
    outer loop
      vertex 1.75 7 6
      vertex 1.75 7 2
      vertex 1.66435 7.54078 6
    endloop
  endfacet
  facet normal 0.891006 0.453991 0
    outer loop
      vertex 1.66435 7.54078 2
      vertex 1.41578 8.02862 2
      vertex 1.41578 8.02862 6
    endloop
  endfacet
  facet normal 0.891006 0.453991 0
    outer loop
      vertex 1.66435 7.54078 6
      vertex 1.66435 7.54078 2
      vertex 1.41578 8.02862 6
    endloop
  endfacet
  facet normal 0.707107 0.707107 0
    outer loop
      vertex 1.02862 8.41578 2
      vertex 1.02862 8.41578 6
      vertex 1.41578 8.02862 2
    endloop
  endfacet
  facet normal 0.707107 0.707107 0
    outer loop
      vertex 1.41578 8.02862 2
      vertex 1.02862 8.41578 6
      vertex 1.41578 8.02862 6
    endloop
  endfacet
  facet normal 0.453991 0.891006 0
    outer loop
      vertex 0.54078 8.66435 2
      vertex 0.54078 8.66435 6
      vertex 1.02862 8.41578 2
    endloop
  endfacet
  facet normal 0.453991 0.891006 0
    outer loop
      vertex 1.02862 8.41578 2
      vertex 0.54078 8.66435 6
      vertex 1.02862 8.41578 6
    endloop
  endfacet
  facet normal 0.156434 0.987688 0
    outer loop
      vertex 0 8.75 2
      vertex 0 8.75 6
      vertex 0.54078 8.66435 2
    endloop
  endfacet
  facet normal 0.156434 0.987688 0
    outer loop
      vertex 0.54078 8.66435 2
      vertex 0 8.75 6
      vertex 0.54078 8.66435 6
    endloop
  endfacet
  facet normal -0.156434 0.987688 0
    outer loop
      vertex -0.54078 8.66435 2
      vertex -0.54078 8.66435 6
      vertex 0 8.75 2
    endloop
  endfacet
  facet normal -0.156434 0.987688 0
    outer loop
      vertex 0 8.75 2
      vertex -0.54078 8.66435 6
      vertex 0 8.75 6
    endloop
  endfacet
  facet normal -0.453991 0.891006 0
    outer loop
      vertex -1.02862 8.41578 2
      vertex -1.02862 8.41578 6
      vertex -0.54078 8.66435 2
    endloop
  endfacet
  facet normal -0.453991 0.891006 0
    outer loop
      vertex -0.54078 8.66435 2
      vertex -1.02862 8.41578 6
      vertex -0.54078 8.66435 6
    endloop
  endfacet
  facet normal -0.707107 0.707107 0
    outer loop
      vertex -1.41578 8.02862 2
      vertex -1.41578 8.02862 6
      vertex -1.02862 8.41578 2
    endloop
  endfacet
  facet normal -0.707107 0.707107 0
    outer loop
      vertex -1.02862 8.41578 2
      vertex -1.41578 8.02862 6
      vertex -1.02862 8.41578 6
    endloop
  endfacet
  facet normal -0.891006 0.453991 0
    outer loop
      vertex -1.66435 7.54078 2
      vertex -1.66435 7.54078 6
      vertex -1.41578 8.02862 2
    endloop
  endfacet
  facet normal -0.891006 0.453991 0
    outer loop
      vertex -1.41578 8.02862 2
      vertex -1.66435 7.54078 6
      vertex -1.41578 8.02862 6
    endloop
  endfacet
  facet normal -0.987688 0.156434 0
    outer loop
      vertex -1.75 7 2
      vertex -1.75 7 6
      vertex -1.66435 7.54078 2
    endloop
  endfacet
  facet normal -0.987688 0.156434 0
    outer loop
      vertex -1.66435 7.54078 2
      vertex -1.75 7 6
      vertex -1.66435 7.54078 6
    endloop
  endfacet
  facet normal 0 0 1
    outer loop
      vertex -1.66435 7.54078 6
      vertex -1.75 7 6
      vertex -1.66435 6.45922 6
    endloop
  endfacet
  facet normal 0 0 1
    outer loop
      vertex -1.02862 5.58422 6
      vertex -1.66435 7.54078 6
      vertex -1.41578 5.97138 6
    endloop
  endfacet
  facet normal 0 0 1
    outer loop
      vertex -1.41578 5.97138 6
      vertex -1.66435 7.54078 6
      vertex -1.66435 6.45922 6
    endloop
  endfacet
  facet normal 0 0 1
    outer loop
      vertex -0.54078 5.33565 6
      vertex -1.66435 7.54078 6
      vertex -1.02862 5.58422 6
    endloop
  endfacet
  facet normal 0 0 1
    outer loop
      vertex 0 5.25 6
      vertex -1.66435 7.54078 6
      vertex -0.54078 5.33565 6
    endloop
  endfacet
  facet normal 0 0 1
    outer loop
      vertex 0.54078 5.33565 6
      vertex -1.66435 7.54078 6
      vertex 0 5.25 6
    endloop
  endfacet
  facet normal 0 0 1
    outer loop
      vertex 1.02862 5.58422 6
      vertex -1.66435 7.54078 6
      vertex 0.54078 5.33565 6
    endloop
  endfacet
  facet normal 0 0 1
    outer loop
      vertex 1.41578 5.97138 6
      vertex -1.66435 7.54078 6
      vertex 1.02862 5.58422 6
    endloop
  endfacet
  facet normal 0 0 1
    outer loop
      vertex 1.66435 6.45922 6
      vertex -1.66435 7.54078 6
      vertex 1.41578 5.97138 6
    endloop
  endfacet
  facet normal 0 0 1
    outer loop
      vertex 1.75 7 6
      vertex -1.66435 7.54078 6
      vertex 1.66435 6.45922 6
    endloop
  endfacet
  facet normal 0 0 1
    outer loop
      vertex 1.66435 7.54078 6
      vertex -1.66435 7.54078 6
      vertex 1.75 7 6
    endloop
  endfacet
  facet normal 0 0 1
    outer loop
      vertex 1.41578 8.02862 6
      vertex -1.66435 7.54078 6
      vertex 1.66435 7.54078 6
    endloop
  endfacet
  facet normal 0 0 1
    outer loop
      vertex 1.02862 8.41578 6
      vertex -1.66435 7.54078 6
      vertex 1.41578 8.02862 6
    endloop
  endfacet
  facet normal 0 0 1
    outer loop
      vertex 0.54078 8.66435 6
      vertex -1.66435 7.54078 6
      vertex 1.02862 8.41578 6
    endloop
  endfacet
  facet normal 0 0 1
    outer loop
      vertex 0 8.75 6
      vertex -1.66435 7.54078 6
      vertex 0.54078 8.66435 6
    endloop
  endfacet
  facet normal 0 0 1
    outer loop
      vertex -0.54078 8.66435 6
      vertex -1.66435 7.54078 6
      vertex 0 8.75 6
    endloop
  endfacet
  facet normal 0 0 1
    outer loop
      vertex -1.02862 8.41578 6
      vertex -1.66435 7.54078 6
      vertex -0.54078 8.66435 6
    endloop
  endfacet
  facet normal 0 0 1
    outer loop
      vertex -1.41578 8.02862 6
      vertex -1.66435 7.54078 6
      vertex -1.02862 8.41578 6
    endloop
  endfacet
endsolid OpenSCAD_Model
