solid OpenSCAD_Model
  facet normal -1 0 0
    outer loop
      vertex 0 67 8
      vertex 0 75 0
      vertex 0 12 8
    endloop
  endfacet
  facet normal -1 0 0
    outer loop
      vertex 0 0 0
      vertex 0 0 25
      vertex 0 12 8
    endloop
  endfacet
  facet normal -1 0 0
    outer loop
      vertex 0 0 0
      vertex 0 12 8
      vertex 0 75 0
    endloop
  endfacet
  facet normal -1 0 0
    outer loop
      vertex 0 75 0
      vertex 0 67 8
      vertex 0 67 48
    endloop
  endfacet
  facet normal -1 0 0
    outer loop
      vertex 0 75 0
      vertex 0 67 48
      vertex 0 75 48
    endloop
  endfacet
  facet normal -1 0 0
    outer loop
      vertex 0 12 8
      vertex 0 0 25
      vertex 0 12 25
    endloop
  endfacet
  facet normal 0 -1 0
    outer loop
      vertex 0 0 25
      vertex 0 0 0
      vertex 24 0 0
    endloop
  endfacet
  facet normal 0 -1 0
    outer loop
      vertex 24 0 25
      vertex 0 0 25
      vertex 24 0 0
    endloop
  endfacet
  facet normal 0 0 -1
    outer loop
      vertex 18.5 28 0
      vertex 16.803 25.0918 0
      vertex 16.3708 25.3413 0
    endloop
  endfacet
  facet normal 0 0 -1
    outer loop
      vertex 16.803 57.6918 0
      vertex 0 75 0
      vertex 24 75 0
    endloop
  endfacet
  facet normal 0 0 -1
    outer loop
      vertex 0 0 0
      vertex 0 75 0
      vertex 5.5 53 0
    endloop
  endfacet
  facet normal 0 0 -1
    outer loop
      vertex 0 0 0
      vertex 5.5 53 0
      vertex 5.5 28 0
    endloop
  endfacet
  facet normal 0 0 -1
    outer loop
      vertex 18.5 28 0
      vertex 8.37082 25.3413 0
      vertex 5.5 28 0
    endloop
  endfacet
  facet normal 0 0 -1
    outer loop
      vertex 24 0 0
      vertex 18.5 28 0
      vertex 24 75 0
    endloop
  endfacet
  facet normal 0 0 -1
    outer loop
      vertex 15.8746 55.6066 0
      vertex 18.5 53 0
      vertex 15.4 55.7608 0
    endloop
  endfacet
  facet normal 0 0 -1
    outer loop
      vertex 18.5 28 0
      vertex 18.5 53 0
      vertex 24 75 0
    endloop
  endfacet
  facet normal 0 0 -1
    outer loop
      vertex 0 0 0
      vertex 5.5 28 0
      vertex 6.08183 6.98757 0
    endloop
  endfacet
  facet normal 0 0 -1
    outer loop
      vertex 15.3067 11 0
      vertex 8.37082 23.0587 0
      vertex 16.7348 9.68528 0
    endloop
  endfacet
  facet normal 0 0 -1
    outer loop
      vertex 0 0 0
      vertex 6.08183 6.98757 0
      vertex 6.08183 5.01243 0
    endloop
  endfacet
  facet normal 0 0 -1
    outer loop
      vertex 0 0 0
      vertex 6.08183 5.01243 0
      vertex 6.72316 3.14432 0
    endloop
  endfacet
  facet normal 0 0 -1
    outer loop
      vertex 0 0 0
      vertex 6.72316 3.14432 0
      vertex 7.93631 1.58566 0
    endloop
  endfacet
  facet normal 0 0 -1
    outer loop
      vertex 0 0 0
      vertex 7.93631 1.58566 0
      vertex 8.83272 1 0
    endloop
  endfacet
  facet normal 0 0 -1
    outer loop
      vertex 0 0 0
      vertex 8.83272 1 0
      vertex 24 0 0
    endloop
  endfacet
  facet normal 0 0 -1
    outer loop
      vertex 16.7348 2.31472 0
      vertex 24 0 0
      vertex 15.3067 1 0
    endloop
  endfacet
  facet normal 0 0 -1
    outer loop
      vertex 17.6749 4.0518 0
      vertex 24 0 0
      vertex 16.7348 2.31472 0
    endloop
  endfacet
  facet normal 0 0 -1
    outer loop
      vertex 17.6749 4.0518 0
      vertex 18 6 0
      vertex 24 0 0
    endloop
  endfacet
  facet normal 0 0 -1
    outer loop
      vertex 18 6 0
      vertex 17.6749 7.9482 0
      vertex 24 0 0
    endloop
  endfacet
  facet normal 0 0 -1
    outer loop
      vertex 8.83272 11 0
      vertex 7.4 23.1608 0
      vertex 7.87457 23.0066 0
    endloop
  endfacet
  facet normal 0 0 -1
    outer loop
      vertex 17.6749 7.9482 0
      vertex 16.7348 9.68528 0
      vertex 24 0 0
    endloop
  endfacet
  facet normal 0 0 -1
    outer loop
      vertex 7.93631 10.4143 0
      vertex 5.5 28 0
      vertex 8.83272 11 0
    endloop
  endfacet
  facet normal 0 0 -1
    outer loop
      vertex 6.72316 8.85568 0
      vertex 5.5 28 0
      vertex 7.93631 10.4143 0
    endloop
  endfacet
  facet normal 0 0 -1
    outer loop
      vertex 6.08183 6.98757 0
      vertex 5.5 28 0
      vertex 6.72316 8.85568 0
    endloop
  endfacet
  facet normal 0 0 -1
    outer loop
      vertex 6.82622 23.9505 0
      vertex 5.5 28 0
      vertex 6.82622 24.4495 0
    endloop
  endfacet
  facet normal 0 0 -1
    outer loop
      vertex 8.83272 11 0
      vertex 5.5 28 0
      vertex 6.82622 23.9505 0
    endloop
  endfacet
  facet normal 0 0 -1
    outer loop
      vertex 6.82622 57.0495 0
      vertex 0 75 0
      vertex 7.02918 57.5053 0
    endloop
  endfacet
  facet normal 0 0 -1
    outer loop
      vertex 8.37082 23.0587 0
      vertex 15.3067 11 0
      vertex 7.87457 23.0066 0
    endloop
  endfacet
  facet normal 0 0 -1
    outer loop
      vertex 6.82622 24.4495 0
      vertex 5.5 28 0
      vertex 7.02918 24.9053 0
    endloop
  endfacet
  facet normal 0 0 -1
    outer loop
      vertex 7.02918 23.4947 0
      vertex 8.83272 11 0
      vertex 6.82622 23.9505 0
    endloop
  endfacet
  facet normal 0 0 -1
    outer loop
      vertex 8.80296 23.3082 0
      vertex 24 0 0
      vertex 16.7348 9.68528 0
    endloop
  endfacet
  facet normal 0 0 -1
    outer loop
      vertex 8.83272 11 0
      vertex 7.02918 23.4947 0
      vertex 7.4 23.1608 0
    endloop
  endfacet
  facet normal 0 0 -1
    outer loop
      vertex 7.4 25.2392 0
      vertex 5.5 28 0
      vertex 7.87457 25.3934 0
    endloop
  endfacet
  facet normal 0 0 -1
    outer loop
      vertex 8.80296 23.3082 0
      vertex 9.09625 23.7119 0
      vertex 24 0 0
    endloop
  endfacet
  facet normal 0 0 -1
    outer loop
      vertex 9.09625 23.7119 0
      vertex 9.2 24.2 0
      vertex 24 0 0
    endloop
  endfacet
  facet normal 0 0 -1
    outer loop
      vertex 5.5 28 0
      vertex 8.37082 25.3413 0
      vertex 7.87457 25.3934 0
    endloop
  endfacet
  facet normal 0 0 -1
    outer loop
      vertex 7.02918 24.9053 0
      vertex 5.5 28 0
      vertex 7.4 25.2392 0
    endloop
  endfacet
  facet normal 0 0 -1
    outer loop
      vertex 6.82622 56.5505 0
      vertex 0 75 0
      vertex 6.82622 57.0495 0
    endloop
  endfacet
  facet normal 0 0 -1
    outer loop
      vertex 18.5 28 0
      vertex 15.8746 25.3934 0
      vertex 15.4 25.2392 0
    endloop
  endfacet
  facet normal 0 0 -1
    outer loop
      vertex 15.0292 24.9053 0
      vertex 14.8262 24.4495 0
      vertex 9.2 24.2 0
    endloop
  endfacet
  facet normal 0 0 -1
    outer loop
      vertex 8.37082 57.9413 0
      vertex 0 75 0
      vertex 8.80296 57.6918 0
    endloop
  endfacet
  facet normal 0 0 -1
    outer loop
      vertex 18.5 28 0
      vertex 8.80296 25.0918 0
      vertex 8.37082 25.3413 0
    endloop
  endfacet
  facet normal 0 0 -1
    outer loop
      vertex 15.4 23.1608 0
      vertex 24 0 0
      vertex 15.0292 23.4947 0
    endloop
  endfacet
  facet normal 0 0 -1
    outer loop
      vertex 7.02918 57.5053 0
      vertex 0 75 0
      vertex 7.4 57.8392 0
    endloop
  endfacet
  facet normal 0 0 -1
    outer loop
      vertex 7.87457 55.6066 0
      vertex 8.37082 55.6587 0
      vertex 18.5 53 0
    endloop
  endfacet
  facet normal 0 0 -1
    outer loop
      vertex 8.37082 55.6587 0
      vertex 8.80296 55.9082 0
      vertex 18.5 53 0
    endloop
  endfacet
  facet normal 0 0 -1
    outer loop
      vertex 7.4 57.8392 0
      vertex 0 75 0
      vertex 7.87457 57.9934 0
    endloop
  endfacet
  facet normal 0 0 -1
    outer loop
      vertex 8.80296 55.9082 0
      vertex 9.09625 56.3119 0
      vertex 18.5 53 0
    endloop
  endfacet
  facet normal 0 0 -1
    outer loop
      vertex 7.87457 57.9934 0
      vertex 0 75 0
      vertex 8.37082 57.9413 0
    endloop
  endfacet
  facet normal 0 0 -1
    outer loop
      vertex 9.09625 56.3119 0
      vertex 9.2 56.8 0
      vertex 18.5 53 0
    endloop
  endfacet
  facet normal 0 0 -1
    outer loop
      vertex 8.80296 57.6918 0
      vertex 0 75 0
      vertex 9.09625 57.2881 0
    endloop
  endfacet
  facet normal 0 0 -1
    outer loop
      vertex 9.2 56.8 0
      vertex 9.09625 57.2881 0
      vertex 18.5 53 0
    endloop
  endfacet
  facet normal 0 0 -1
    outer loop
      vertex 9.2 24.2 0
      vertex 14.8262 24.4495 0
      vertex 14.8262 23.9505 0
    endloop
  endfacet
  facet normal 0 0 -1
    outer loop
      vertex 9.2 24.2 0
      vertex 14.8262 23.9505 0
      vertex 24 0 0
    endloop
  endfacet
  facet normal 0 0 -1
    outer loop
      vertex 14.8262 23.9505 0
      vertex 15.0292 23.4947 0
      vertex 24 0 0
    endloop
  endfacet
  facet normal 0 0 -1
    outer loop
      vertex 16.3708 23.0587 0
      vertex 24 0 0
      vertex 15.8746 23.0066 0
    endloop
  endfacet
  facet normal 0 0 -1
    outer loop
      vertex 15.4 23.1608 0
      vertex 15.8746 23.0066 0
      vertex 24 0 0
    endloop
  endfacet
  facet normal 0 0 -1
    outer loop
      vertex 18.5 28 0
      vertex 17.0963 24.6881 0
      vertex 16.803 25.0918 0
    endloop
  endfacet
  facet normal 0 0 -1
    outer loop
      vertex 16.803 23.3082 0
      vertex 24 0 0
      vertex 16.3708 23.0587 0
    endloop
  endfacet
  facet normal 0 0 -1
    outer loop
      vertex 18.5 28 0
      vertex 15.4 25.2392 0
      vertex 9.2 24.2 0
    endloop
  endfacet
  facet normal 0 0 -1
    outer loop
      vertex 24 0 0
      vertex 17.0963 23.7119 0
      vertex 18.5 28 0
    endloop
  endfacet
  facet normal 0 0 -1
    outer loop
      vertex 17.0963 23.7119 0
      vertex 17.2 24.2 0
      vertex 18.5 28 0
    endloop
  endfacet
  facet normal 0 0 -1
    outer loop
      vertex 18.5 28 0
      vertex 9.09625 24.6881 0
      vertex 8.80296 25.0918 0
    endloop
  endfacet
  facet normal 0 0 -1
    outer loop
      vertex 17.2 24.2 0
      vertex 17.0963 24.6881 0
      vertex 18.5 28 0
    endloop
  endfacet
  facet normal 0 0 -1
    outer loop
      vertex 18.5 28 0
      vertex 9.2 24.2 0
      vertex 9.09625 24.6881 0
    endloop
  endfacet
  facet normal 0 0 -1
    outer loop
      vertex 15.4 25.2392 0
      vertex 15.0292 24.9053 0
      vertex 9.2 24.2 0
    endloop
  endfacet
  facet normal 0 0 -1
    outer loop
      vertex 18.5 28 0
      vertex 16.3708 25.3413 0
      vertex 15.8746 25.3934 0
    endloop
  endfacet
  facet normal 0 0 -1
    outer loop
      vertex 17.0963 23.7119 0
      vertex 24 0 0
      vertex 16.803 23.3082 0
    endloop
  endfacet
  facet normal 0 0 -1
    outer loop
      vertex 9.09625 57.2881 0
      vertex 0 75 0
      vertex 14.8262 57.0495 0
    endloop
  endfacet
  facet normal 0 0 -1
    outer loop
      vertex 9.09625 57.2881 0
      vertex 14.8262 57.0495 0
      vertex 14.8262 56.5505 0
    endloop
  endfacet
  facet normal 0 0 -1
    outer loop
      vertex 9.09625 57.2881 0
      vertex 14.8262 56.5505 0
      vertex 15.0292 56.0947 0
    endloop
  endfacet
  facet normal 0 0 -1
    outer loop
      vertex 9.09625 57.2881 0
      vertex 15.0292 56.0947 0
      vertex 15.4 55.7608 0
    endloop
  endfacet
  facet normal 0 0 -1
    outer loop
      vertex 9.09625 57.2881 0
      vertex 15.4 55.7608 0
      vertex 18.5 53 0
    endloop
  endfacet
  facet normal 0 0 -1
    outer loop
      vertex 16.3708 55.6587 0
      vertex 18.5 53 0
      vertex 15.8746 55.6066 0
    endloop
  endfacet
  facet normal 0 0 -1
    outer loop
      vertex 18.5 53 0
      vertex 16.3708 55.6587 0
      vertex 16.803 55.9082 0
    endloop
  endfacet
  facet normal 0 0 -1
    outer loop
      vertex 18.5 53 0
      vertex 16.803 55.9082 0
      vertex 17.0963 56.3119 0
    endloop
  endfacet
  facet normal 0 0 -1
    outer loop
      vertex 18.5 53 0
      vertex 17.0963 56.3119 0
      vertex 24 75 0
    endloop
  endfacet
  facet normal 0 0 -1
    outer loop
      vertex 17.0963 56.3119 0
      vertex 17.2 56.8 0
      vertex 24 75 0
    endloop
  endfacet
  facet normal 0 0 -1
    outer loop
      vertex 16.803 57.6918 0
      vertex 24 75 0
      vertex 17.0963 57.2881 0
    endloop
  endfacet
  facet normal 0 0 -1
    outer loop
      vertex 16.3708 57.9413 0
      vertex 0 75 0
      vertex 16.803 57.6918 0
    endloop
  endfacet
  facet normal 0 0 -1
    outer loop
      vertex 15.8746 57.9934 0
      vertex 0 75 0
      vertex 16.3708 57.9413 0
    endloop
  endfacet
  facet normal 0 0 -1
    outer loop
      vertex 15.4 57.8392 0
      vertex 0 75 0
      vertex 15.8746 57.9934 0
    endloop
  endfacet
  facet normal 0 0 -1
    outer loop
      vertex 15.0292 57.5053 0
      vertex 0 75 0
      vertex 15.4 57.8392 0
    endloop
  endfacet
  facet normal 0 0 -1
    outer loop
      vertex 5.5 53 0
      vertex 0 75 0
      vertex 6.82622 56.5505 0
    endloop
  endfacet
  facet normal 0 0 -1
    outer loop
      vertex 5.5 53 0
      vertex 6.82622 56.5505 0
      vertex 7.02918 56.0947 0
    endloop
  endfacet
  facet normal 0 0 -1
    outer loop
      vertex 5.5 53 0
      vertex 7.02918 56.0947 0
      vertex 7.4 55.7608 0
    endloop
  endfacet
  facet normal 0 0 -1
    outer loop
      vertex 5.5 53 0
      vertex 7.4 55.7608 0
      vertex 7.87457 55.6066 0
    endloop
  endfacet
  facet normal 0 0 -1
    outer loop
      vertex 5.5 53 0
      vertex 7.87457 55.6066 0
      vertex 18.5 53 0
    endloop
  endfacet
  facet normal 0 0 -1
    outer loop
      vertex 15.3067 1 0
      vertex 24 0 0
      vertex 8.83272 1 0
    endloop
  endfacet
  facet normal 0 0 -1
    outer loop
      vertex 14.8262 57.0495 0
      vertex 0 75 0
      vertex 15.0292 57.5053 0
    endloop
  endfacet
  facet normal 0 0 -1
    outer loop
      vertex 17.0963 57.2881 0
      vertex 24 75 0
      vertex 17.2 56.8 0
    endloop
  endfacet
  facet normal 0 0 -1
    outer loop
      vertex 8.80296 23.3082 0
      vertex 16.7348 9.68528 0
      vertex 8.37082 23.0587 0
    endloop
  endfacet
  facet normal 0 0 -1
    outer loop
      vertex 8.83272 11 0
      vertex 7.87457 23.0066 0
      vertex 15.3067 11 0
    endloop
  endfacet
  facet normal 0 1 0
    outer loop
      vertex 0 75 0
      vertex 0 75 48
      vertex 24 75 0
    endloop
  endfacet
  facet normal 0 1 0
    outer loop
      vertex 24 75 0
      vertex 0 75 48
      vertex 24 75 48
    endloop
  endfacet
  facet normal 0 0 1
    outer loop
      vertex 0 75 48
      vertex 0 67 48
      vertex 24 67 48
    endloop
  endfacet
  facet normal 0 0 1
    outer loop
      vertex 24 75 48
      vertex 0 75 48
      vertex 24 67 48
    endloop
  endfacet
  facet normal 0 -1 0
    outer loop
      vertex 0 67 48
      vertex 0 67 8
      vertex 24 67 8
    endloop
  endfacet
  facet normal 0 -1 0
    outer loop
      vertex 24 67 48
      vertex 0 67 48
      vertex 24 67 8
    endloop
  endfacet
  facet normal 0 0 1
    outer loop
      vertex 7.87457 23.0066 8
      vertex 0 12 8
      vertex 24 12 8
    endloop
  endfacet
  facet normal 0 0 1
    outer loop
      vertex 15.4 23.1608 8
      vertex 5.5 28 8
      vertex 24 12 8
    endloop
  endfacet
  facet normal 0 0 1
    outer loop
      vertex 0 67 8
      vertex 0 12 8
      vertex 5.5 28 8
    endloop
  endfacet
  facet normal 0 0 1
    outer loop
      vertex 0 67 8
      vertex 5.5 28 8
      vertex 5.5 53 8
    endloop
  endfacet
  facet normal 0 0 1
    outer loop
      vertex 24 67 8
      vertex 18.5 53 8
      vertex 24 12 8
    endloop
  endfacet
  facet normal 0 0 1
    outer loop
      vertex 15.4 55.7608 8
      vertex 0 67 8
      vertex 18.5 53 8
    endloop
  endfacet
  facet normal 0 0 1
    outer loop
      vertex 18.5 53 8
      vertex 18.5 28 8
      vertex 24 12 8
    endloop
  endfacet
  facet normal 0 0 1
    outer loop
      vertex 8.80296 57.6918 8
      vertex 9.09625 57.2881 8
      vertex 18.5 53 8
    endloop
  endfacet
  facet normal 0 0 1
    outer loop
      vertex 5.5 28 8
      vertex 0 12 8
      vertex 6.82622 23.9505 8
    endloop
  endfacet
  facet normal 0 0 1
    outer loop
      vertex 8.37082 23.0587 8
      vertex 7.87457 23.0066 8
      vertex 24 12 8
    endloop
  endfacet
  facet normal 0 0 1
    outer loop
      vertex 5.5 28 8
      vertex 6.82622 23.9505 8
      vertex 6.82622 24.4495 8
    endloop
  endfacet
  facet normal 0 0 1
    outer loop
      vertex 8.80296 23.3082 8
      vertex 8.37082 23.0587 8
      vertex 24 12 8
    endloop
  endfacet
  facet normal 0 0 1
    outer loop
      vertex 5.5 28 8
      vertex 6.82622 24.4495 8
      vertex 7.02918 24.9053 8
    endloop
  endfacet
  facet normal 0 0 1
    outer loop
      vertex 9.09625 23.7119 8
      vertex 8.80296 23.3082 8
      vertex 24 12 8
    endloop
  endfacet
  facet normal 0 0 1
    outer loop
      vertex 5.5 28 8
      vertex 7.02918 24.9053 8
      vertex 7.4 25.2392 8
    endloop
  endfacet
  facet normal 0 0 1
    outer loop
      vertex 9.2 24.2 8
      vertex 9.09625 23.7119 8
      vertex 24 12 8
    endloop
  endfacet
  facet normal 0 0 1
    outer loop
      vertex 5.5 28 8
      vertex 7.4 25.2392 8
      vertex 7.87457 25.3934 8
    endloop
  endfacet
  facet normal 0 0 1
    outer loop
      vertex 9.09625 24.6881 8
      vertex 9.2 24.2 8
      vertex 24 12 8
    endloop
  endfacet
  facet normal 0 0 1
    outer loop
      vertex 5.5 28 8
      vertex 7.87457 25.3934 8
      vertex 8.37082 25.3413 8
    endloop
  endfacet
  facet normal 0 0 1
    outer loop
      vertex 5.5 28 8
      vertex 8.80296 25.0918 8
      vertex 24 12 8
    endloop
  endfacet
  facet normal 0 0 1
    outer loop
      vertex 5.5 28 8
      vertex 8.37082 25.3413 8
      vertex 8.80296 25.0918 8
    endloop
  endfacet
  facet normal 0 0 1
    outer loop
      vertex 7.4 23.1608 8
      vertex 0 12 8
      vertex 7.87457 23.0066 8
    endloop
  endfacet
  facet normal 0 0 1
    outer loop
      vertex 7.02918 23.4947 8
      vertex 0 12 8
      vertex 7.4 23.1608 8
    endloop
  endfacet
  facet normal 0 0 1
    outer loop
      vertex 6.82622 23.9505 8
      vertex 0 12 8
      vertex 7.02918 23.4947 8
    endloop
  endfacet
  facet normal 0 0 1
    outer loop
      vertex 6.82622 57.0495 8
      vertex 0 67 8
      vertex 6.82622 56.5505 8
    endloop
  endfacet
  facet normal 0 0 1
    outer loop
      vertex 17.0963 24.6881 8
      vertex 17.2 24.2 8
      vertex 24 12 8
    endloop
  endfacet
  facet normal 0 0 1
    outer loop
      vertex 7.02918 57.5053 8
      vertex 0 67 8
      vertex 6.82622 57.0495 8
    endloop
  endfacet
  facet normal 0 0 1
    outer loop
      vertex 7.4 57.8392 8
      vertex 0 67 8
      vertex 7.02918 57.5053 8
    endloop
  endfacet
  facet normal 0 0 1
    outer loop
      vertex 7.87457 57.9934 8
      vertex 0 67 8
      vertex 7.4 57.8392 8
    endloop
  endfacet
  facet normal 0 0 1
    outer loop
      vertex 8.37082 57.9413 8
      vertex 0 67 8
      vertex 7.87457 57.9934 8
    endloop
  endfacet
  facet normal 0 0 1
    outer loop
      vertex 18.5 53 8
      vertex 0 67 8
      vertex 8.37082 57.9413 8
    endloop
  endfacet
  facet normal 0 0 1
    outer loop
      vertex 9.09625 57.2881 8
      vertex 9.2 56.8 8
      vertex 18.5 53 8
    endloop
  endfacet
  facet normal 0 0 1
    outer loop
      vertex 18.5 53 8
      vertex 8.37082 57.9413 8
      vertex 8.80296 57.6918 8
    endloop
  endfacet
  facet normal 0 0 1
    outer loop
      vertex 9.2 56.8 8
      vertex 9.09625 56.3119 8
      vertex 18.5 53 8
    endloop
  endfacet
  facet normal 0 0 1
    outer loop
      vertex 16.3708 23.0587 8
      vertex 15.8746 23.0066 8
      vertex 24 12 8
    endloop
  endfacet
  facet normal 0 0 1
    outer loop
      vertex 8.80296 25.0918 8
      vertex 9.09625 24.6881 8
      vertex 24 12 8
    endloop
  endfacet
  facet normal 0 0 1
    outer loop
      vertex 9.09625 56.3119 8
      vertex 8.80296 55.9082 8
      vertex 18.5 53 8
    endloop
  endfacet
  facet normal 0 0 1
    outer loop
      vertex 15.4 57.8392 8
      vertex 15.8746 57.9934 8
      vertex 24 67 8
    endloop
  endfacet
  facet normal 0 0 1
    outer loop
      vertex 15.8746 23.0066 8
      vertex 15.4 23.1608 8
      vertex 24 12 8
    endloop
  endfacet
  facet normal 0 0 1
    outer loop
      vertex 5.5 53 8
      vertex 6.82622 56.5505 8
      vertex 0 67 8
    endloop
  endfacet
  facet normal 0 0 1
    outer loop
      vertex 5.5 53 8
      vertex 7.02918 56.0947 8
      vertex 6.82622 56.5505 8
    endloop
  endfacet
  facet normal 0 0 1
    outer loop
      vertex 5.5 53 8
      vertex 7.4 55.7608 8
      vertex 7.02918 56.0947 8
    endloop
  endfacet
  facet normal 0 0 1
    outer loop
      vertex 16.803 23.3082 8
      vertex 16.3708 23.0587 8
      vertex 24 12 8
    endloop
  endfacet
  facet normal 0 0 1
    outer loop
      vertex 5.5 53 8
      vertex 7.87457 55.6066 8
      vertex 7.4 55.7608 8
    endloop
  endfacet
  facet normal 0 0 1
    outer loop
      vertex 17.0963 23.7119 8
      vertex 16.803 23.3082 8
      vertex 24 12 8
    endloop
  endfacet
  facet normal 0 0 1
    outer loop
      vertex 5.5 53 8
      vertex 8.37082 55.6587 8
      vertex 7.87457 55.6066 8
    endloop
  endfacet
  facet normal 0 0 1
    outer loop
      vertex 17.2 24.2 8
      vertex 17.0963 23.7119 8
      vertex 24 12 8
    endloop
  endfacet
  facet normal 0 0 1
    outer loop
      vertex 5.5 53 8
      vertex 8.80296 55.9082 8
      vertex 8.37082 55.6587 8
    endloop
  endfacet
  facet normal 0 0 1
    outer loop
      vertex 5.5 53 8
      vertex 18.5 53 8
      vertex 8.80296 55.9082 8
    endloop
  endfacet
  facet normal 0 0 1
    outer loop
      vertex 15.0292 23.4947 8
      vertex 5.5 28 8
      vertex 15.4 23.1608 8
    endloop
  endfacet
  facet normal 0 0 1
    outer loop
      vertex 14.8262 23.9505 8
      vertex 5.5 28 8
      vertex 15.0292 23.4947 8
    endloop
  endfacet
  facet normal 0 0 1
    outer loop
      vertex 14.8262 57.0495 8
      vertex 0 67 8
      vertex 14.8262 56.5505 8
    endloop
  endfacet
  facet normal 0 0 1
    outer loop
      vertex 15.0292 57.5053 8
      vertex 0 67 8
      vertex 14.8262 57.0495 8
    endloop
  endfacet
  facet normal 0 0 1
    outer loop
      vertex 24 67 8
      vertex 0 67 8
      vertex 15.0292 57.5053 8
    endloop
  endfacet
  facet normal 0 0 1
    outer loop
      vertex 15.8746 57.9934 8
      vertex 16.3708 57.9413 8
      vertex 24 67 8
    endloop
  endfacet
  facet normal 0 0 1
    outer loop
      vertex 24 67 8
      vertex 15.0292 57.5053 8
      vertex 15.4 57.8392 8
    endloop
  endfacet
  facet normal 0 0 1
    outer loop
      vertex 17.2 56.8 8
      vertex 17.0963 56.3119 8
      vertex 18.5 53 8
    endloop
  endfacet
  facet normal 0 0 1
    outer loop
      vertex 15.8746 55.6066 8
      vertex 15.4 55.7608 8
      vertex 18.5 53 8
    endloop
  endfacet
  facet normal 0 0 1
    outer loop
      vertex 17.0963 56.3119 8
      vertex 16.803 55.9082 8
      vertex 18.5 53 8
    endloop
  endfacet
  facet normal 0 0 1
    outer loop
      vertex 24 67 8
      vertex 16.3708 57.9413 8
      vertex 16.803 57.6918 8
    endloop
  endfacet
  facet normal 0 0 1
    outer loop
      vertex 24 67 8
      vertex 17.0963 57.2881 8
      vertex 18.5 53 8
    endloop
  endfacet
  facet normal 0 0 1
    outer loop
      vertex 24 67 8
      vertex 16.803 57.6918 8
      vertex 17.0963 57.2881 8
    endloop
  endfacet
  facet normal 0 0 1
    outer loop
      vertex 17.0963 57.2881 8
      vertex 17.2 56.8 8
      vertex 18.5 53 8
    endloop
  endfacet
  facet normal 0 0 1
    outer loop
      vertex 16.803 55.9082 8
      vertex 16.3708 55.6587 8
      vertex 18.5 53 8
    endloop
  endfacet
  facet normal 0 0 1
    outer loop
      vertex 16.3708 55.6587 8
      vertex 15.8746 55.6066 8
      vertex 18.5 53 8
    endloop
  endfacet
  facet normal 0 0 1
    outer loop
      vertex 15.0292 56.0947 8
      vertex 0 67 8
      vertex 15.4 55.7608 8
    endloop
  endfacet
  facet normal 0 0 1
    outer loop
      vertex 14.8262 56.5505 8
      vertex 0 67 8
      vertex 15.0292 56.0947 8
    endloop
  endfacet
  facet normal 0 0 1
    outer loop
      vertex 18.5 28 8
      vertex 17.0963 24.6881 8
      vertex 24 12 8
    endloop
  endfacet
  facet normal 0 0 1
    outer loop
      vertex 18.5 28 8
      vertex 16.803 25.0918 8
      vertex 17.0963 24.6881 8
    endloop
  endfacet
  facet normal 0 0 1
    outer loop
      vertex 18.5 28 8
      vertex 16.3708 25.3413 8
      vertex 16.803 25.0918 8
    endloop
  endfacet
  facet normal 0 0 1
    outer loop
      vertex 18.5 28 8
      vertex 15.8746 25.3934 8
      vertex 16.3708 25.3413 8
    endloop
  endfacet
  facet normal 0 0 1
    outer loop
      vertex 18.5 28 8
      vertex 15.4 25.2392 8
      vertex 15.8746 25.3934 8
    endloop
  endfacet
  facet normal 0 0 1
    outer loop
      vertex 14.8262 24.4495 8
      vertex 5.5 28 8
      vertex 14.8262 23.9505 8
    endloop
  endfacet
  facet normal 0 0 1
    outer loop
      vertex 15.0292 24.9053 8
      vertex 5.5 28 8
      vertex 14.8262 24.4495 8
    endloop
  endfacet
  facet normal 0 0 1
    outer loop
      vertex 15.4 25.2392 8
      vertex 5.5 28 8
      vertex 15.0292 24.9053 8
    endloop
  endfacet
  facet normal 0 0 1
    outer loop
      vertex 18.5 28 8
      vertex 5.5 28 8
      vertex 15.4 25.2392 8
    endloop
  endfacet
  facet normal 0 1 0
    outer loop
      vertex 0 12 8
      vertex 0 12 25
      vertex 24 12 8
    endloop
  endfacet
  facet normal 0 1 0
    outer loop
      vertex 24 12 8
      vertex 0 12 25
      vertex 24 12 25
    endloop
  endfacet
  facet normal 0 0 1
    outer loop
      vertex 15.3067 1 25
      vertex 0 0 25
      vertex 24 0 25
    endloop
  endfacet
  facet normal 0 0 1
    outer loop
      vertex 0 12 25
      vertex 0 0 25
      vertex 6.08183 5.01243 25
    endloop
  endfacet
  facet normal 0 0 1
    outer loop
      vertex 8.83272 11 25
      vertex 15.3067 11 25
      vertex 24 12 25
    endloop
  endfacet
  facet normal 0 0 1
    outer loop
      vertex 0 12 25
      vertex 6.08183 5.01243 25
      vertex 6.08183 6.98757 25
    endloop
  endfacet
  facet normal 0 0 1
    outer loop
      vertex 7.93631 10.4143 25
      vertex 0 12 25
      vertex 6.72316 8.85568 25
    endloop
  endfacet
  facet normal 0 0 1
    outer loop
      vertex 8.83272 11 25
      vertex 0 12 25
      vertex 7.93631 10.4143 25
    endloop
  endfacet
  facet normal 0 0 1
    outer loop
      vertex 15.3067 11 25
      vertex 16.7348 9.68528 25
      vertex 24 12 25
    endloop
  endfacet
  facet normal 0 0 1
    outer loop
      vertex 24 12 25
      vertex 0 12 25
      vertex 8.83272 11 25
    endloop
  endfacet
  facet normal 0 0 1
    outer loop
      vertex 24 12 25
      vertex 16.7348 9.68528 25
      vertex 24 0 25
    endloop
  endfacet
  facet normal 0 0 1
    outer loop
      vertex 16.7348 9.68528 25
      vertex 17.6749 7.9482 25
      vertex 24 0 25
    endloop
  endfacet
  facet normal 0 0 1
    outer loop
      vertex 17.6749 7.9482 25
      vertex 18 6 25
      vertex 24 0 25
    endloop
  endfacet
  facet normal 0 0 1
    outer loop
      vertex 18 6 25
      vertex 17.6749 4.0518 25
      vertex 24 0 25
    endloop
  endfacet
  facet normal 0 0 1
    outer loop
      vertex 8.83272 1 25
      vertex 0 0 25
      vertex 15.3067 1 25
    endloop
  endfacet
  facet normal 0 0 1
    outer loop
      vertex 7.93631 1.58566 25
      vertex 0 0 25
      vertex 8.83272 1 25
    endloop
  endfacet
  facet normal 0 0 1
    outer loop
      vertex 6.72316 3.14432 25
      vertex 0 0 25
      vertex 7.93631 1.58566 25
    endloop
  endfacet
  facet normal 0 0 1
    outer loop
      vertex 6.08183 5.01243 25
      vertex 0 0 25
      vertex 6.72316 3.14432 25
    endloop
  endfacet
  facet normal 0 0 1
    outer loop
      vertex 16.7348 2.31472 25
      vertex 15.3067 1 25
      vertex 24 0 25
    endloop
  endfacet
  facet normal 0 0 1
    outer loop
      vertex 6.08183 6.98757 25
      vertex 6.72316 8.85568 25
      vertex 0 12 25
    endloop
  endfacet
  facet normal 0 0 1
    outer loop
      vertex 17.6749 4.0518 25
      vertex 16.7348 2.31472 25
      vertex 24 0 25
    endloop
  endfacet
  facet normal 1 0 0
    outer loop
      vertex 24 12 8
      vertex 24 0 0
      vertex 24 75 0
    endloop
  endfacet
  facet normal 1 0 0
    outer loop
      vertex 24 12 8
      vertex 24 12 25
      vertex 24 0 25
    endloop
  endfacet
  facet normal 1 0 0
    outer loop
      vertex 24 75 48
      vertex 24 67 8
      vertex 24 75 0
    endloop
  endfacet
  facet normal 1 0 0
    outer loop
      vertex 24 0 25
      vertex 24 0 0
      vertex 24 12 8
    endloop
  endfacet
  facet normal 1 0 0
    outer loop
      vertex 24 67 8
      vertex 24 12 8
      vertex 24 75 0
    endloop
  endfacet
  facet normal 1 0 0
    outer loop
      vertex 24 67 48
      vertex 24 67 8
      vertex 24 75 48
    endloop
  endfacet
  facet normal 1 0 0
    outer loop
      vertex 5.5 53 0
      vertex 5.5 53 8
      vertex 5.5 28 8
    endloop
  endfacet
  facet normal 1 0 0
    outer loop
      vertex 5.5 28 0
      vertex 5.5 53 0
      vertex 5.5 28 8
    endloop
  endfacet
  facet normal 0 -1 0
    outer loop
      vertex 18.5 53 0
      vertex 18.5 53 8
      vertex 5.5 53 8
    endloop
  endfacet
  facet normal 0 -1 0
    outer loop
      vertex 5.5 53 0
      vertex 18.5 53 0
      vertex 5.5 53 8
    endloop
  endfacet
  facet normal -1 0 0
    outer loop
      vertex 18.5 53 8
      vertex 18.5 53 0
      vertex 18.5 28 8
    endloop
  endfacet
  facet normal -1 0 0
    outer loop
      vertex 18.5 28 8
      vertex 18.5 53 0
      vertex 18.5 28 0
    endloop
  endfacet
  facet normal 0 1 0
    outer loop
      vertex 18.5 28 8
      vertex 18.5 28 0
      vertex 5.5 28 8
    endloop
  endfacet
  facet normal 0 1 0
    outer loop
      vertex 5.5 28 8
      vertex 18.5 28 0
      vertex 5.5 28 0
    endloop
  endfacet
  facet normal 0.945817 -0.324699 0
    outer loop
      vertex 6.72316 8.85568 0
      vertex 6.72316 8.85568 25
      vertex 6.08183 6.98757 25
    endloop
  endfacet
  facet normal 0.945817 -0.324699 0
    outer loop
      vertex 6.08183 6.98757 0
      vertex 6.72316 8.85568 0
      vertex 6.08183 6.98757 25
    endloop
  endfacet
  facet normal 1 0 0
    outer loop
      vertex 6.08183 6.98757 0
      vertex 6.08183 6.98757 25
      vertex 6.08183 5.01243 25
    endloop
  endfacet
  facet normal 1 0 0
    outer loop
      vertex 6.08183 5.01243 0
      vertex 6.08183 6.98757 0
      vertex 6.08183 5.01243 25
    endloop
  endfacet
  facet normal 0.78914 -0.614213 0
    outer loop
      vertex 7.93631 10.4143 0
      vertex 7.93631 10.4143 25
      vertex 6.72316 8.85568 25
    endloop
  endfacet
  facet normal 0.78914 -0.614213 0
    outer loop
      vertex 6.72316 8.85568 0
      vertex 7.93631 10.4143 0
      vertex 6.72316 8.85568 25
    endloop
  endfacet
  facet normal 0.546949 -0.837166 0
    outer loop
      vertex 8.83272 11 0
      vertex 8.83272 11 25
      vertex 7.93631 10.4143 25
    endloop
  endfacet
  facet normal 0.546949 -0.837166 0
    outer loop
      vertex 7.93631 10.4143 0
      vertex 8.83272 11 0
      vertex 7.93631 10.4143 25
    endloop
  endfacet
  facet normal 0 -1 0
    outer loop
      vertex 15.3067 11 0
      vertex 15.3067 11 25
      vertex 8.83272 11 25
    endloop
  endfacet
  facet normal 0 -1 0
    outer loop
      vertex 8.83272 11 0
      vertex 15.3067 11 0
      vertex 8.83272 11 25
    endloop
  endfacet
  facet normal -0.677282 -0.735724 0
    outer loop
      vertex 16.7348 9.68528 0
      vertex 16.7348 9.68528 25
      vertex 15.3067 11 25
    endloop
  endfacet
  facet normal -0.677282 -0.735724 0
    outer loop
      vertex 15.3067 11 0
      vertex 16.7348 9.68528 0
      vertex 15.3067 11 25
    endloop
  endfacet
  facet normal -0.879474 -0.475947 0
    outer loop
      vertex 17.6749 7.9482 25
      vertex 16.7348 9.68528 25
      vertex 17.6749 7.9482 0
    endloop
  endfacet
  facet normal -0.879474 -0.475947 0
    outer loop
      vertex 17.6749 7.9482 0
      vertex 16.7348 9.68528 25
      vertex 16.7348 9.68528 0
    endloop
  endfacet
  facet normal -0.986361 -0.164595 0
    outer loop
      vertex 18 6 25
      vertex 17.6749 7.9482 25
      vertex 18 6 0
    endloop
  endfacet
  facet normal -0.986361 -0.164595 0
    outer loop
      vertex 18 6 0
      vertex 17.6749 7.9482 25
      vertex 17.6749 7.9482 0
    endloop
  endfacet
  facet normal -0.986361 0.164595 0
    outer loop
      vertex 18 6 25
      vertex 18 6 0
      vertex 17.6749 4.0518 25
    endloop
  endfacet
  facet normal -0.986361 0.164595 0
    outer loop
      vertex 17.6749 4.0518 25
      vertex 18 6 0
      vertex 17.6749 4.0518 0
    endloop
  endfacet
  facet normal -0.879474 0.475947 0
    outer loop
      vertex 17.6749 4.0518 25
      vertex 17.6749 4.0518 0
      vertex 16.7348 2.31472 25
    endloop
  endfacet
  facet normal -0.879474 0.475947 0
    outer loop
      vertex 16.7348 2.31472 25
      vertex 17.6749 4.0518 0
      vertex 16.7348 2.31472 0
    endloop
  endfacet
  facet normal -0.677282 0.735724 0
    outer loop
      vertex 16.7348 2.31472 25
      vertex 16.7348 2.31472 0
      vertex 15.3067 1 25
    endloop
  endfacet
  facet normal -0.677282 0.735724 0
    outer loop
      vertex 15.3067 1 25
      vertex 16.7348 2.31472 0
      vertex 15.3067 1 0
    endloop
  endfacet
  facet normal 0 1 0
    outer loop
      vertex 15.3067 1 25
      vertex 15.3067 1 0
      vertex 8.83272 1 25
    endloop
  endfacet
  facet normal 0 1 0
    outer loop
      vertex 8.83272 1 25
      vertex 15.3067 1 0
      vertex 8.83272 1 0
    endloop
  endfacet
  facet normal 0.546949 0.837166 0
    outer loop
      vertex 8.83272 1 25
      vertex 8.83272 1 0
      vertex 7.93631 1.58566 25
    endloop
  endfacet
  facet normal 0.546949 0.837166 0
    outer loop
      vertex 7.93631 1.58566 25
      vertex 8.83272 1 0
      vertex 7.93631 1.58566 0
    endloop
  endfacet
  facet normal 0.78914 0.614213 0
    outer loop
      vertex 6.72316 3.14432 25
      vertex 7.93631 1.58566 25
      vertex 7.93631 1.58566 0
    endloop
  endfacet
  facet normal 0.78914 0.614213 0
    outer loop
      vertex 6.72316 3.14432 0
      vertex 6.72316 3.14432 25
      vertex 7.93631 1.58566 0
    endloop
  endfacet
  facet normal 0.945817 0.324699 0
    outer loop
      vertex 6.08183 5.01243 25
      vertex 6.72316 3.14432 25
      vertex 6.72316 3.14432 0
    endloop
  endfacet
  facet normal 0.945817 0.324699 0
    outer loop
      vertex 6.08183 5.01243 0
      vertex 6.08183 5.01243 25
      vertex 6.72316 3.14432 0
    endloop
  endfacet
  facet normal 0.913545 -0.406737 0
    outer loop
      vertex 7.02918 24.9053 0
      vertex 7.02918 24.9053 8
      vertex 6.82622 24.4495 8
    endloop
  endfacet
  facet normal 0.913545 -0.406737 0
    outer loop
      vertex 6.82622 24.4495 0
      vertex 7.02918 24.9053 0
      vertex 6.82622 24.4495 8
    endloop
  endfacet
  facet normal 1 0 0
    outer loop
      vertex 6.82622 24.4495 0
      vertex 6.82622 24.4495 8
      vertex 6.82622 23.9505 8
    endloop
  endfacet
  facet normal 1 0 0
    outer loop
      vertex 6.82622 23.9505 0
      vertex 6.82622 24.4495 0
      vertex 6.82622 23.9505 8
    endloop
  endfacet
  facet normal 0.669131 -0.743145 0
    outer loop
      vertex 7.4 25.2392 0
      vertex 7.4 25.2392 8
      vertex 7.02918 24.9053 8
    endloop
  endfacet
  facet normal 0.669131 -0.743145 0
    outer loop
      vertex 7.02918 24.9053 0
      vertex 7.4 25.2392 0
      vertex 7.02918 24.9053 8
    endloop
  endfacet
  facet normal 0.309017 -0.951056 0
    outer loop
      vertex 7.87457 25.3934 0
      vertex 7.87457 25.3934 8
      vertex 7.4 25.2392 8
    endloop
  endfacet
  facet normal 0.309017 -0.951056 0
    outer loop
      vertex 7.4 25.2392 0
      vertex 7.87457 25.3934 0
      vertex 7.4 25.2392 8
    endloop
  endfacet
  facet normal -0.104528 -0.994522 0
    outer loop
      vertex 8.37082 25.3413 0
      vertex 8.37082 25.3413 8
      vertex 7.87457 25.3934 8
    endloop
  endfacet
  facet normal -0.104528 -0.994522 0
    outer loop
      vertex 7.87457 25.3934 0
      vertex 8.37082 25.3413 0
      vertex 7.87457 25.3934 8
    endloop
  endfacet
  facet normal -0.499999 -0.866026 0
    outer loop
      vertex 8.80296 25.0918 0
      vertex 8.80296 25.0918 8
      vertex 8.37082 25.3413 8
    endloop
  endfacet
  facet normal -0.499999 -0.866026 0
    outer loop
      vertex 8.37082 25.3413 0
      vertex 8.80296 25.0918 0
      vertex 8.37082 25.3413 8
    endloop
  endfacet
  facet normal -0.809017 -0.587785 0
    outer loop
      vertex 9.09625 24.6881 8
      vertex 8.80296 25.0918 8
      vertex 9.09625 24.6881 0
    endloop
  endfacet
  facet normal -0.809017 -0.587785 0
    outer loop
      vertex 9.09625 24.6881 0
      vertex 8.80296 25.0918 8
      vertex 8.80296 25.0918 0
    endloop
  endfacet
  facet normal -0.978148 -0.207911 0
    outer loop
      vertex 9.2 24.2 8
      vertex 9.09625 24.6881 8
      vertex 9.2 24.2 0
    endloop
  endfacet
  facet normal -0.978148 -0.207911 0
    outer loop
      vertex 9.2 24.2 0
      vertex 9.09625 24.6881 8
      vertex 9.09625 24.6881 0
    endloop
  endfacet
  facet normal -0.978148 0.207911 0
    outer loop
      vertex 9.2 24.2 8
      vertex 9.2 24.2 0
      vertex 9.09625 23.7119 8
    endloop
  endfacet
  facet normal -0.978148 0.207911 0
    outer loop
      vertex 9.09625 23.7119 8
      vertex 9.2 24.2 0
      vertex 9.09625 23.7119 0
    endloop
  endfacet
  facet normal -0.809017 0.587785 0
    outer loop
      vertex 9.09625 23.7119 8
      vertex 9.09625 23.7119 0
      vertex 8.80296 23.3082 8
    endloop
  endfacet
  facet normal -0.809017 0.587785 0
    outer loop
      vertex 8.80296 23.3082 8
      vertex 9.09625 23.7119 0
      vertex 8.80296 23.3082 0
    endloop
  endfacet
  facet normal -0.499999 0.866026 0
    outer loop
      vertex 8.80296 23.3082 8
      vertex 8.80296 23.3082 0
      vertex 8.37082 23.0587 8
    endloop
  endfacet
  facet normal -0.499999 0.866026 0
    outer loop
      vertex 8.37082 23.0587 8
      vertex 8.80296 23.3082 0
      vertex 8.37082 23.0587 0
    endloop
  endfacet
  facet normal -0.104528 0.994522 0
    outer loop
      vertex 8.37082 23.0587 8
      vertex 8.37082 23.0587 0
      vertex 7.87457 23.0066 8
    endloop
  endfacet
  facet normal -0.104528 0.994522 0
    outer loop
      vertex 7.87457 23.0066 8
      vertex 8.37082 23.0587 0
      vertex 7.87457 23.0066 0
    endloop
  endfacet
  facet normal 0.309017 0.951056 0
    outer loop
      vertex 7.87457 23.0066 8
      vertex 7.87457 23.0066 0
      vertex 7.4 23.1608 8
    endloop
  endfacet
  facet normal 0.309017 0.951056 0
    outer loop
      vertex 7.4 23.1608 8
      vertex 7.87457 23.0066 0
      vertex 7.4 23.1608 0
    endloop
  endfacet
  facet normal 0.669131 0.743145 0
    outer loop
      vertex 7.4 23.1608 8
      vertex 7.4 23.1608 0
      vertex 7.02918 23.4947 8
    endloop
  endfacet
  facet normal 0.669131 0.743145 0
    outer loop
      vertex 7.02918 23.4947 8
      vertex 7.4 23.1608 0
      vertex 7.02918 23.4947 0
    endloop
  endfacet
  facet normal 0.913545 0.406737 0
    outer loop
      vertex 6.82622 23.9505 8
      vertex 7.02918 23.4947 8
      vertex 7.02918 23.4947 0
    endloop
  endfacet
  facet normal 0.913545 0.406737 0
    outer loop
      vertex 6.82622 23.9505 0
      vertex 6.82622 23.9505 8
      vertex 7.02918 23.4947 0
    endloop
  endfacet
  facet normal 0.913545 -0.406737 0
    outer loop
      vertex 7.02918 57.5053 0
      vertex 7.02918 57.5053 8
      vertex 6.82622 57.0495 8
    endloop
  endfacet
  facet normal 0.913545 -0.406737 0
    outer loop
      vertex 6.82622 57.0495 0
      vertex 7.02918 57.5053 0
      vertex 6.82622 57.0495 8
    endloop
  endfacet
  facet normal 1 0 0
    outer loop
      vertex 6.82622 57.0495 0
      vertex 6.82622 57.0495 8
      vertex 6.82622 56.5505 8
    endloop
  endfacet
  facet normal 1 0 0
    outer loop
      vertex 6.82622 56.5505 0
      vertex 6.82622 57.0495 0
      vertex 6.82622 56.5505 8
    endloop
  endfacet
  facet normal 0.669131 -0.743145 0
    outer loop
      vertex 7.4 57.8392 0
      vertex 7.4 57.8392 8
      vertex 7.02918 57.5053 8
    endloop
  endfacet
  facet normal 0.669131 -0.743145 0
    outer loop
      vertex 7.02918 57.5053 0
      vertex 7.4 57.8392 0
      vertex 7.02918 57.5053 8
    endloop
  endfacet
  facet normal 0.309017 -0.951056 0
    outer loop
      vertex 7.87457 57.9934 0
      vertex 7.87457 57.9934 8
      vertex 7.4 57.8392 8
    endloop
  endfacet
  facet normal 0.309017 -0.951056 0
    outer loop
      vertex 7.4 57.8392 0
      vertex 7.87457 57.9934 0
      vertex 7.4 57.8392 8
    endloop
  endfacet
  facet normal -0.104528 -0.994522 0
    outer loop
      vertex 8.37082 57.9413 0
      vertex 8.37082 57.9413 8
      vertex 7.87457 57.9934 8
    endloop
  endfacet
  facet normal -0.104528 -0.994522 0
    outer loop
      vertex 7.87457 57.9934 0
      vertex 8.37082 57.9413 0
      vertex 7.87457 57.9934 8
    endloop
  endfacet
  facet normal -0.499999 -0.866026 0
    outer loop
      vertex 8.80296 57.6918 0
      vertex 8.80296 57.6918 8
      vertex 8.37082 57.9413 8
    endloop
  endfacet
  facet normal -0.499999 -0.866026 0
    outer loop
      vertex 8.37082 57.9413 0
      vertex 8.80296 57.6918 0
      vertex 8.37082 57.9413 8
    endloop
  endfacet
  facet normal -0.809017 -0.587785 0
    outer loop
      vertex 9.09625 57.2881 8
      vertex 8.80296 57.6918 8
      vertex 9.09625 57.2881 0
    endloop
  endfacet
  facet normal -0.809017 -0.587785 0
    outer loop
      vertex 9.09625 57.2881 0
      vertex 8.80296 57.6918 8
      vertex 8.80296 57.6918 0
    endloop
  endfacet
  facet normal -0.978148 -0.207911 0
    outer loop
      vertex 9.2 56.8 8
      vertex 9.09625 57.2881 8
      vertex 9.2 56.8 0
    endloop
  endfacet
  facet normal -0.978148 -0.207911 0
    outer loop
      vertex 9.2 56.8 0
      vertex 9.09625 57.2881 8
      vertex 9.09625 57.2881 0
    endloop
  endfacet
  facet normal -0.978148 0.207911 0
    outer loop
      vertex 9.2 56.8 8
      vertex 9.2 56.8 0
      vertex 9.09625 56.3119 8
    endloop
  endfacet
  facet normal -0.978148 0.207911 0
    outer loop
      vertex 9.09625 56.3119 8
      vertex 9.2 56.8 0
      vertex 9.09625 56.3119 0
    endloop
  endfacet
  facet normal -0.809017 0.587785 0
    outer loop
      vertex 9.09625 56.3119 8
      vertex 9.09625 56.3119 0
      vertex 8.80296 55.9082 8
    endloop
  endfacet
  facet normal -0.809017 0.587785 0
    outer loop
      vertex 8.80296 55.9082 8
      vertex 9.09625 56.3119 0
      vertex 8.80296 55.9082 0
    endloop
  endfacet
  facet normal -0.499999 0.866026 0
    outer loop
      vertex 8.80296 55.9082 8
      vertex 8.80296 55.9082 0
      vertex 8.37082 55.6587 8
    endloop
  endfacet
  facet normal -0.499999 0.866026 0
    outer loop
      vertex 8.37082 55.6587 8
      vertex 8.80296 55.9082 0
      vertex 8.37082 55.6587 0
    endloop
  endfacet
  facet normal -0.104528 0.994522 0
    outer loop
      vertex 8.37082 55.6587 8
      vertex 8.37082 55.6587 0
      vertex 7.87457 55.6066 8
    endloop
  endfacet
  facet normal -0.104528 0.994522 0
    outer loop
      vertex 7.87457 55.6066 8
      vertex 8.37082 55.6587 0
      vertex 7.87457 55.6066 0
    endloop
  endfacet
  facet normal 0.309017 0.951056 0
    outer loop
      vertex 7.87457 55.6066 8
      vertex 7.87457 55.6066 0
      vertex 7.4 55.7608 8
    endloop
  endfacet
  facet normal 0.309017 0.951056 0
    outer loop
      vertex 7.4 55.7608 8
      vertex 7.87457 55.6066 0
      vertex 7.4 55.7608 0
    endloop
  endfacet
  facet normal 0.669131 0.743145 0
    outer loop
      vertex 7.4 55.7608 8
      vertex 7.4 55.7608 0
      vertex 7.02918 56.0947 8
    endloop
  endfacet
  facet normal 0.669131 0.743145 0
    outer loop
      vertex 7.02918 56.0947 8
      vertex 7.4 55.7608 0
      vertex 7.02918 56.0947 0
    endloop
  endfacet
  facet normal 0.913545 0.406737 0
    outer loop
      vertex 6.82622 56.5505 8
      vertex 7.02918 56.0947 8
      vertex 7.02918 56.0947 0
    endloop
  endfacet
  facet normal 0.913545 0.406737 0
    outer loop
      vertex 6.82622 56.5505 0
      vertex 6.82622 56.5505 8
      vertex 7.02918 56.0947 0
    endloop
  endfacet
  facet normal 0.913545 -0.406737 0
    outer loop
      vertex 15.0292 24.9053 0
      vertex 15.0292 24.9053 8
      vertex 14.8262 24.4495 8
    endloop
  endfacet
  facet normal 0.913545 -0.406737 0
    outer loop
      vertex 14.8262 24.4495 0
      vertex 15.0292 24.9053 0
      vertex 14.8262 24.4495 8
    endloop
  endfacet
  facet normal 1 0 0
    outer loop
      vertex 14.8262 24.4495 0
      vertex 14.8262 24.4495 8
      vertex 14.8262 23.9505 8
    endloop
  endfacet
  facet normal 1 0 0
    outer loop
      vertex 14.8262 23.9505 0
      vertex 14.8262 24.4495 0
      vertex 14.8262 23.9505 8
    endloop
  endfacet
  facet normal 0.669131 -0.743145 0
    outer loop
      vertex 15.4 25.2392 0
      vertex 15.4 25.2392 8
      vertex 15.0292 24.9053 8
    endloop
  endfacet
  facet normal 0.669131 -0.743145 0
    outer loop
      vertex 15.0292 24.9053 0
      vertex 15.4 25.2392 0
      vertex 15.0292 24.9053 8
    endloop
  endfacet
  facet normal 0.309017 -0.951056 0
    outer loop
      vertex 15.8746 25.3934 0
      vertex 15.8746 25.3934 8
      vertex 15.4 25.2392 8
    endloop
  endfacet
  facet normal 0.309017 -0.951056 0
    outer loop
      vertex 15.4 25.2392 0
      vertex 15.8746 25.3934 0
      vertex 15.4 25.2392 8
    endloop
  endfacet
  facet normal -0.104528 -0.994522 0
    outer loop
      vertex 16.3708 25.3413 0
      vertex 16.3708 25.3413 8
      vertex 15.8746 25.3934 8
    endloop
  endfacet
  facet normal -0.104528 -0.994522 0
    outer loop
      vertex 15.8746 25.3934 0
      vertex 16.3708 25.3413 0
      vertex 15.8746 25.3934 8
    endloop
  endfacet
  facet normal -0.499999 -0.866026 0
    outer loop
      vertex 16.803 25.0918 0
      vertex 16.803 25.0918 8
      vertex 16.3708 25.3413 8
    endloop
  endfacet
  facet normal -0.499999 -0.866026 0
    outer loop
      vertex 16.3708 25.3413 0
      vertex 16.803 25.0918 0
      vertex 16.3708 25.3413 8
    endloop
  endfacet
  facet normal -0.809017 -0.587785 0
    outer loop
      vertex 17.0963 24.6881 8
      vertex 16.803 25.0918 8
      vertex 17.0963 24.6881 0
    endloop
  endfacet
  facet normal -0.809017 -0.587785 0
    outer loop
      vertex 17.0963 24.6881 0
      vertex 16.803 25.0918 8
      vertex 16.803 25.0918 0
    endloop
  endfacet
  facet normal -0.978148 -0.207911 0
    outer loop
      vertex 17.2 24.2 8
      vertex 17.0963 24.6881 8
      vertex 17.2 24.2 0
    endloop
  endfacet
  facet normal -0.978148 -0.207911 0
    outer loop
      vertex 17.2 24.2 0
      vertex 17.0963 24.6881 8
      vertex 17.0963 24.6881 0
    endloop
  endfacet
  facet normal -0.978148 0.207911 0
    outer loop
      vertex 17.2 24.2 8
      vertex 17.2 24.2 0
      vertex 17.0963 23.7119 8
    endloop
  endfacet
  facet normal -0.978148 0.207911 0
    outer loop
      vertex 17.0963 23.7119 8
      vertex 17.2 24.2 0
      vertex 17.0963 23.7119 0
    endloop
  endfacet
  facet normal -0.809017 0.587785 0
    outer loop
      vertex 17.0963 23.7119 8
      vertex 17.0963 23.7119 0
      vertex 16.803 23.3082 8
    endloop
  endfacet
  facet normal -0.809017 0.587785 0
    outer loop
      vertex 16.803 23.3082 8
      vertex 17.0963 23.7119 0
      vertex 16.803 23.3082 0
    endloop
  endfacet
  facet normal -0.499999 0.866026 0
    outer loop
      vertex 16.803 23.3082 8
      vertex 16.803 23.3082 0
      vertex 16.3708 23.0587 8
    endloop
  endfacet
  facet normal -0.499999 0.866026 0
    outer loop
      vertex 16.3708 23.0587 8
      vertex 16.803 23.3082 0
      vertex 16.3708 23.0587 0
    endloop
  endfacet
  facet normal -0.104528 0.994522 0
    outer loop
      vertex 16.3708 23.0587 8
      vertex 16.3708 23.0587 0
      vertex 15.8746 23.0066 8
    endloop
  endfacet
  facet normal -0.104528 0.994522 0
    outer loop
      vertex 15.8746 23.0066 8
      vertex 16.3708 23.0587 0
      vertex 15.8746 23.0066 0
    endloop
  endfacet
  facet normal 0.309017 0.951056 0
    outer loop
      vertex 15.8746 23.0066 8
      vertex 15.8746 23.0066 0
      vertex 15.4 23.1608 8
    endloop
  endfacet
  facet normal 0.309017 0.951056 0
    outer loop
      vertex 15.4 23.1608 8
      vertex 15.8746 23.0066 0
      vertex 15.4 23.1608 0
    endloop
  endfacet
  facet normal 0.669131 0.743145 0
    outer loop
      vertex 15.4 23.1608 8
      vertex 15.4 23.1608 0
      vertex 15.0292 23.4947 8
    endloop
  endfacet
  facet normal 0.669131 0.743145 0
    outer loop
      vertex 15.0292 23.4947 8
      vertex 15.4 23.1608 0
      vertex 15.0292 23.4947 0
    endloop
  endfacet
  facet normal 0.913545 0.406737 0
    outer loop
      vertex 14.8262 23.9505 8
      vertex 15.0292 23.4947 8
      vertex 15.0292 23.4947 0
    endloop
  endfacet
  facet normal 0.913545 0.406737 0
    outer loop
      vertex 14.8262 23.9505 0
      vertex 14.8262 23.9505 8
      vertex 15.0292 23.4947 0
    endloop
  endfacet
  facet normal 0.913545 -0.406737 0
    outer loop
      vertex 15.0292 57.5053 0
      vertex 15.0292 57.5053 8
      vertex 14.8262 57.0495 8
    endloop
  endfacet
  facet normal 0.913545 -0.406737 0
    outer loop
      vertex 14.8262 57.0495 0
      vertex 15.0292 57.5053 0
      vertex 14.8262 57.0495 8
    endloop
  endfacet
  facet normal 1 0 0
    outer loop
      vertex 14.8262 57.0495 0
      vertex 14.8262 57.0495 8
      vertex 14.8262 56.5505 8
    endloop
  endfacet
  facet normal 1 0 0
    outer loop
      vertex 14.8262 56.5505 0
      vertex 14.8262 57.0495 0
      vertex 14.8262 56.5505 8
    endloop
  endfacet
  facet normal 0.669131 -0.743145 0
    outer loop
      vertex 15.4 57.8392 0
      vertex 15.4 57.8392 8
      vertex 15.0292 57.5053 8
    endloop
  endfacet
  facet normal 0.669131 -0.743145 0
    outer loop
      vertex 15.0292 57.5053 0
      vertex 15.4 57.8392 0
      vertex 15.0292 57.5053 8
    endloop
  endfacet
  facet normal 0.309017 -0.951056 0
    outer loop
      vertex 15.8746 57.9934 0
      vertex 15.8746 57.9934 8
      vertex 15.4 57.8392 8
    endloop
  endfacet
  facet normal 0.309017 -0.951056 0
    outer loop
      vertex 15.4 57.8392 0
      vertex 15.8746 57.9934 0
      vertex 15.4 57.8392 8
    endloop
  endfacet
  facet normal -0.104528 -0.994522 0
    outer loop
      vertex 16.3708 57.9413 0
      vertex 16.3708 57.9413 8
      vertex 15.8746 57.9934 8
    endloop
  endfacet
  facet normal -0.104528 -0.994522 0
    outer loop
      vertex 15.8746 57.9934 0
      vertex 16.3708 57.9413 0
      vertex 15.8746 57.9934 8
    endloop
  endfacet
  facet normal -0.499999 -0.866026 0
    outer loop
      vertex 16.803 57.6918 0
      vertex 16.803 57.6918 8
      vertex 16.3708 57.9413 8
    endloop
  endfacet
  facet normal -0.499999 -0.866026 0
    outer loop
      vertex 16.3708 57.9413 0
      vertex 16.803 57.6918 0
      vertex 16.3708 57.9413 8
    endloop
  endfacet
  facet normal -0.809017 -0.587785 0
    outer loop
      vertex 17.0963 57.2881 8
      vertex 16.803 57.6918 8
      vertex 17.0963 57.2881 0
    endloop
  endfacet
  facet normal -0.809017 -0.587785 0
    outer loop
      vertex 17.0963 57.2881 0
      vertex 16.803 57.6918 8
      vertex 16.803 57.6918 0
    endloop
  endfacet
  facet normal -0.978148 -0.207911 0
    outer loop
      vertex 17.2 56.8 8
      vertex 17.0963 57.2881 8
      vertex 17.2 56.8 0
    endloop
  endfacet
  facet normal -0.978148 -0.207911 0
    outer loop
      vertex 17.2 56.8 0
      vertex 17.0963 57.2881 8
      vertex 17.0963 57.2881 0
    endloop
  endfacet
  facet normal -0.978148 0.207911 0
    outer loop
      vertex 17.2 56.8 8
      vertex 17.2 56.8 0
      vertex 17.0963 56.3119 8
    endloop
  endfacet
  facet normal -0.978148 0.207911 0
    outer loop
      vertex 17.0963 56.3119 8
      vertex 17.2 56.8 0
      vertex 17.0963 56.3119 0
    endloop
  endfacet
  facet normal -0.809017 0.587785 0
    outer loop
      vertex 17.0963 56.3119 8
      vertex 17.0963 56.3119 0
      vertex 16.803 55.9082 8
    endloop
  endfacet
  facet normal -0.809017 0.587785 0
    outer loop
      vertex 16.803 55.9082 8
      vertex 17.0963 56.3119 0
      vertex 16.803 55.9082 0
    endloop
  endfacet
  facet normal -0.499999 0.866026 0
    outer loop
      vertex 16.803 55.9082 8
      vertex 16.803 55.9082 0
      vertex 16.3708 55.6587 8
    endloop
  endfacet
  facet normal -0.499999 0.866026 0
    outer loop
      vertex 16.3708 55.6587 8
      vertex 16.803 55.9082 0
      vertex 16.3708 55.6587 0
    endloop
  endfacet
  facet normal -0.104528 0.994522 0
    outer loop
      vertex 16.3708 55.6587 8
      vertex 16.3708 55.6587 0
      vertex 15.8746 55.6066 8
    endloop
  endfacet
  facet normal -0.104528 0.994522 0
    outer loop
      vertex 15.8746 55.6066 8
      vertex 16.3708 55.6587 0
      vertex 15.8746 55.6066 0
    endloop
  endfacet
  facet normal 0.309017 0.951056 0
    outer loop
      vertex 15.8746 55.6066 8
      vertex 15.8746 55.6066 0
      vertex 15.4 55.7608 8
    endloop
  endfacet
  facet normal 0.309017 0.951056 0
    outer loop
      vertex 15.4 55.7608 8
      vertex 15.8746 55.6066 0
      vertex 15.4 55.7608 0
    endloop
  endfacet
  facet normal 0.669131 0.743145 0
    outer loop
      vertex 15.4 55.7608 8
      vertex 15.4 55.7608 0
      vertex 15.0292 56.0947 8
    endloop
  endfacet
  facet normal 0.669131 0.743145 0
    outer loop
      vertex 15.0292 56.0947 8
      vertex 15.4 55.7608 0
      vertex 15.0292 56.0947 0
    endloop
  endfacet
  facet normal 0.913545 0.406737 0
    outer loop
      vertex 14.8262 56.5505 8
      vertex 15.0292 56.0947 8
      vertex 15.0292 56.0947 0
    endloop
  endfacet
  facet normal 0.913545 0.406737 0
    outer loop
      vertex 14.8262 56.5505 0
      vertex 14.8262 56.5505 8
      vertex 15.0292 56.0947 0
    endloop
  endfacet
endsolid OpenSCAD_Model
